<svg xmlns="http://www.w3.org/2000/svg" viewBox="70 360 585 300" role="img" aria-labelledby="sakala-mark-title">
<title id="sakala-mark-title">Sakala</title>
<path d="M0 0 C1.57937434 -0.00599148 3.15874577 -0.01279845 4.7381134 -0.02035522 C9.01098505 -0.03795896 13.2837765 -0.04270821 17.55668092 -0.0439868 C20.23094333 -0.0454121 22.90518559 -0.04968886 25.57944298 -0.05498123 C34.92244121 -0.0734626 44.26538253 -0.08165418 53.60839844 -0.08007812 C62.29601174 -0.07887711 70.98337645 -0.09997648 79.67092687 -0.13156545 C87.14806777 -0.15777738 94.62512772 -0.16844337 102.10231417 -0.16716731 C106.55997039 -0.16665914 111.01740549 -0.1722618 115.47501564 -0.19352341 C119.67027935 -0.21298907 123.86511286 -0.21297389 128.06039238 -0.19849014 C129.59255227 -0.19641125 131.1247397 -0.20104761 132.65685272 -0.21321106 C146.25522618 -0.31410383 156.89581594 2.30684495 167.39526367 11.29052734 C176.59163859 20.44656729 179.02277594 32.68488124 179.10623169 45.15328979 C179.10129673 46.78082444 179.09581617 48.4083575 179.08984375 50.03588867 C179.10155662 51.78523694 179.11533363 53.53457241 179.1309967 55.28388977 C179.16635851 59.99904729 179.17013034 64.71371076 179.16568589 69.42898011 C179.16448928 73.38232346 179.1779878 77.33556664 179.19106883 81.28888434 C179.2213119 90.62487233 179.22475745 99.96061067 179.21191406 109.29663086 C179.19924023 118.88942811 179.23440593 128.48121835 179.29279786 138.07382375 C179.34128921 146.34524127 179.35844985 154.616338 179.35132331 162.88789386 C179.34746466 167.81253643 179.35527379 172.73642028 179.39393044 177.66092873 C179.42906583 182.2966052 179.42470959 186.93068341 179.39159203 191.56635857 C179.38587112 193.2544569 179.39341675 194.94266857 179.41619873 196.63062286 C179.58817646 210.34921783 176.29871347 221.78324656 167.14526367 232.41552734 C159.4683868 239.1394126 148.73846013 243.52902181 138.59761047 243.55795288 C137.93870967 243.56248399 137.27980886 243.56701511 136.60094136 243.57168353 C134.40641442 243.5842823 132.21213709 243.58271011 130.01757812 243.58105469 C128.43849877 243.58704291 126.85942234 243.59384913 125.28034973 243.60140991 C120.99909553 243.61905055 116.71792133 243.62376457 112.4366343 243.62504148 C109.75802741 243.62646512 107.07944072 243.63073882 104.40083885 243.63603592 C95.04488209 243.65453214 85.68898225 243.66270733 76.33300781 243.66113281 C67.63066732 243.6599326 58.92857533 243.68101237 50.22629768 243.71262014 C42.74070461 243.73883362 35.25519242 243.74949794 27.76955384 243.74822199 C23.30516106 243.74771371 18.84098904 243.7533224 14.37664223 243.77457809 C10.17319754 243.79404535 5.9701822 243.79402748 1.76672173 243.77954483 C0.23133843 243.77746587 -1.30407234 243.78210272 -2.83940887 243.79426575 C-16.33217721 243.89415943 -26.51077457 241.63532788 -36.60473633 232.29052734 C-44.44061464 224.55959383 -48.65381131 215.28372698 -48.83178711 204.26342773 C-48.83147256 201.88832281 -48.82029891 199.51320221 -48.80004883 197.13818359 C-48.79721893 195.88291367 -48.79438904 194.62764374 -48.79147339 193.33433533 C-48.7822076 190.01838388 -48.76427932 186.70271433 -48.74206543 183.38684082 C-48.72150228 179.99473489 -48.71244942 176.60259969 -48.70239258 173.21044922 C-48.68038757 166.57039817 -48.64695128 159.93047901 -48.60473633 153.29052734 C-53.36813459 152.65676081 -58.04857687 152.14934566 -62.85473633 151.97412109 C-63.95688477 151.93222656 -65.0590332 151.89033203 -66.19458008 151.84716797 C-67.31993164 151.80785156 -68.4452832 151.76853516 -69.60473633 151.72802734 C-70.76102539 151.68484375 -71.91731445 151.64166016 -73.10864258 151.59716797 C-75.94057487 151.49184817 -78.7725838 151.38971647 -81.60473633 151.29052734 C-81.65879639 150.53779541 -81.71285645 149.78506348 -81.76855469 149.00952148 C-81.84726807 148.02072998 -81.92598145 147.03193848 -82.00708008 146.01318359 C-82.08176514 145.03357666 -82.1564502 144.05396973 -82.23339844 143.04467773 C-82.68627703 139.68575377 -83.89221159 137.19437363 -85.60473633 134.29052734 C-85.60473633 133.63052734 -85.60473633 132.97052734 -85.60473633 132.29052734 C-81.13105076 131.17432065 -76.74790522 131.14201664 -72.16723633 131.16552734 C-71.44858398 131.16166016 -70.72993164 131.15779297 -69.98950195 131.15380859 C-65.06804159 131.1623306 -60.19245385 131.4375114 -55.28417969 131.79882812 C-54.03108505 131.8904422 -52.77799042 131.98205627 -51.48692322 132.07644653 C-50.06024071 132.18241653 -50.06024071 132.18241653 -48.60473633 132.29052734 C-48.61361877 131.04739777 -48.62250122 129.80426819 -48.63165283 128.52346802 C-48.71289336 116.78315042 -48.77277603 105.04289018 -48.81198502 93.30235481 C-48.83282072 87.26704274 -48.8610653 81.23195838 -48.90649414 75.19677734 C-48.95009463 69.36772308 -48.97390363 63.53888727 -48.9842453 57.70968246 C-48.99161116 55.49062539 -49.0059948 53.27157969 -49.02765656 51.05261612 C-49.05687885 47.93390726 -49.06068441 44.81609031 -49.05883789 41.69726562 C-49.07321899 40.78879379 -49.0876001 39.88032196 -49.10241699 38.94432068 C-49.03243581 27.95362203 -44.35993384 19.14234133 -36.91723633 11.22802734 C-26.09756522 0.72953385 -14.37579492 -0.01089851 0 0 Z " fill="#FBFCFC" transform="translate(457.604736328125,379.70947265625)"/>
<path d="M0 0 C1.57937434 -0.00599148 3.15874577 -0.01279845 4.7381134 -0.02035522 C9.01098505 -0.03795896 13.2837765 -0.04270821 17.55668092 -0.0439868 C20.23094333 -0.0454121 22.90518559 -0.04968886 25.57944298 -0.05498123 C34.92244121 -0.0734626 44.26538253 -0.08165418 53.60839844 -0.08007812 C62.29601174 -0.07887711 70.98337645 -0.09997648 79.67092687 -0.13156545 C87.14806777 -0.15777738 94.62512772 -0.16844337 102.10231417 -0.16716731 C106.55997039 -0.16665914 111.01740549 -0.1722618 115.47501564 -0.19352341 C119.67027935 -0.21298907 123.86511286 -0.21297389 128.06039238 -0.19849014 C129.59255227 -0.19641125 131.1247397 -0.20104761 132.65685272 -0.21321106 C146.25522618 -0.31410383 156.89581594 2.30684495 167.39526367 11.29052734 C176.59163859 20.44656729 179.02277594 32.68488124 179.10623169 45.15328979 C179.10129673 46.78082444 179.09581617 48.4083575 179.08984375 50.03588867 C179.10155662 51.78523694 179.11533363 53.53457241 179.1309967 55.28388977 C179.16635851 59.99904729 179.17013034 64.71371076 179.16568589 69.42898011 C179.16448928 73.38232346 179.1779878 77.33556664 179.19106883 81.28888434 C179.2213119 90.62487233 179.22475745 99.96061067 179.21191406 109.29663086 C179.19924023 118.88942811 179.23440593 128.48121835 179.29279786 138.07382375 C179.34128921 146.34524127 179.35844985 154.616338 179.35132331 162.88789386 C179.34746466 167.81253643 179.35527379 172.73642028 179.39393044 177.66092873 C179.42906583 182.2966052 179.42470959 186.93068341 179.39159203 191.56635857 C179.38587112 193.2544569 179.39341675 194.94266857 179.41619873 196.63062286 C179.58817646 210.34921783 176.29871347 221.78324656 167.14526367 232.41552734 C159.4683868 239.1394126 148.73846013 243.52902181 138.59761047 243.55795288 C137.93870967 243.56248399 137.27980886 243.56701511 136.60094136 243.57168353 C134.40641442 243.5842823 132.21213709 243.58271011 130.01757812 243.58105469 C128.43849877 243.58704291 126.85942234 243.59384913 125.28034973 243.60140991 C120.99909553 243.61905055 116.71792133 243.62376457 112.4366343 243.62504148 C109.75802741 243.62646512 107.07944072 243.63073882 104.40083885 243.63603592 C95.04488209 243.65453214 85.68898225 243.66270733 76.33300781 243.66113281 C67.63066732 243.6599326 58.92857533 243.68101237 50.22629768 243.71262014 C42.74070461 243.73883362 35.25519242 243.74949794 27.76955384 243.74822199 C23.30516106 243.74771371 18.84098904 243.7533224 14.37664223 243.77457809 C10.17319754 243.79404535 5.9701822 243.79402748 1.76672173 243.77954483 C0.23133843 243.77746587 -1.30407234 243.78210272 -2.83940887 243.79426575 C-16.33217721 243.89415943 -26.51077457 241.63532788 -36.60473633 232.29052734 C-44.44061464 224.55959383 -48.65381131 215.28372698 -48.83178711 204.26342773 C-48.83147256 201.88832281 -48.82029891 199.51320221 -48.80004883 197.13818359 C-48.79721893 195.88291367 -48.79438904 194.62764374 -48.79147339 193.33433533 C-48.7822076 190.01838388 -48.76427932 186.70271433 -48.74206543 183.38684082 C-48.72150228 179.99473489 -48.71244942 176.60259969 -48.70239258 173.21044922 C-48.68038757 166.57039817 -48.64695128 159.93047901 -48.60473633 153.29052734 C-53.36813459 152.65676081 -58.04857687 152.14934566 -62.85473633 151.97412109 C-63.95688477 151.93222656 -65.0590332 151.89033203 -66.19458008 151.84716797 C-67.31993164 151.80785156 -68.4452832 151.76853516 -69.60473633 151.72802734 C-70.76102539 151.68484375 -71.91731445 151.64166016 -73.10864258 151.59716797 C-75.94057487 151.49184817 -78.7725838 151.38971647 -81.60473633 151.29052734 C-81.65879639 150.53779541 -81.71285645 149.78506348 -81.76855469 149.00952148 C-81.84726807 148.02072998 -81.92598145 147.03193848 -82.00708008 146.01318359 C-82.08176514 145.03357666 -82.1564502 144.05396973 -82.23339844 143.04467773 C-82.68627703 139.68575377 -83.89221159 137.19437363 -85.60473633 134.29052734 C-85.60473633 133.63052734 -85.60473633 132.97052734 -85.60473633 132.29052734 C-81.13105076 131.17432065 -76.74790522 131.14201664 -72.16723633 131.16552734 C-71.44858398 131.16166016 -70.72993164 131.15779297 -69.98950195 131.15380859 C-65.06804159 131.1623306 -60.19245385 131.4375114 -55.28417969 131.79882812 C-54.03108505 131.8904422 -52.77799042 131.98205627 -51.48692322 132.07644653 C-50.06024071 132.18241653 -50.06024071 132.18241653 -48.60473633 132.29052734 C-48.61361877 131.04739777 -48.62250122 129.80426819 -48.63165283 128.52346802 C-48.71289336 116.78315042 -48.77277603 105.04289018 -48.81198502 93.30235481 C-48.83282072 87.26704274 -48.8610653 81.23195838 -48.90649414 75.19677734 C-48.95009463 69.36772308 -48.97390363 63.53888727 -48.9842453 57.70968246 C-48.99161116 55.49062539 -49.0059948 53.27157969 -49.02765656 51.05261612 C-49.05687885 47.93390726 -49.06068441 44.81609031 -49.05883789 41.69726562 C-49.07321899 40.78879379 -49.0876001 39.88032196 -49.10241699 38.94432068 C-49.03243581 27.95362203 -44.35993384 19.14234133 -36.91723633 11.22802734 C-26.09756522 0.72953385 -14.37579492 -0.01089851 0 0 Z M-32.97973633 63.85302734 C-33.4618457 64.43181641 -33.94395508 65.01060547 -34.44067383 65.60693359 C-36.72981717 68.91774158 -36.73858976 71.9153828 -36.7653656 75.80955505 C-36.77541122 76.95749039 -36.78545685 78.10542572 -36.79580688 79.28814697 C-36.80163788 80.54891052 -36.80746887 81.80967407 -36.81347656 83.10864258 C-36.82301727 84.44920597 -36.83290852 85.7897669 -36.84312439 87.13032532 C-36.87450304 91.53656089 -36.89478454 95.94281524 -36.91333008 100.34912109 C-36.9166274 101.10002179 -36.91992472 101.85092249 -36.92332196 102.62457776 C-36.95411749 109.71439204 -36.98081128 116.80421068 -36.99774075 123.89407253 C-37.01960509 132.94313301 -37.06147993 141.99159695 -37.13117832 151.04041904 C-37.17857921 157.41258532 -37.20269613 163.78459165 -37.20993763 170.1569286 C-37.21487232 173.95704925 -37.22974058 177.75649759 -37.26968193 181.55642509 C-37.30684512 185.13948568 -37.31486293 188.72149839 -37.3016758 192.30471611 C-37.30175453 194.22763403 -37.33141752 196.15048177 -37.36236572 198.07315063 C-37.28464501 207.48091 -34.9759504 215.45613717 -28.55081844 222.56207943 C-22.7607237 228.06741844 -16.76972865 230.66140006 -8.79399109 230.6782074 C-8.14578095 230.68359294 -7.49757081 230.68897847 -6.82971793 230.69452721 C-4.67729597 230.70873112 -2.52549563 230.70172229 -0.37304688 230.69458008 C1.17824799 230.70028775 2.72953866 230.70725354 4.28082275 230.71537781 C8.48141977 230.73328343 12.68180759 230.7321454 16.88243127 230.72643542 C20.39610926 230.72333891 23.90974735 230.72944138 27.42341965 230.73547417 C35.71769783 230.74951012 44.01187299 230.74796669 52.30615234 230.73657227 C60.84552174 230.72509991 69.38457675 230.73915391 77.92390472 230.76596874 C85.27023595 230.7881685 92.61646882 230.79475327 99.9628312 230.78889233 C104.34388678 230.78553079 108.72474101 230.78788378 113.1057682 230.80514336 C117.22880949 230.8206781 121.35138759 230.8165852 125.47441101 230.79783821 C126.98118187 230.79416988 128.48798754 230.7972092 129.99472618 230.807724 C141.00961818 230.87867774 150.54336217 229.7756035 158.92651367 222.00537109 C163.42889267 216.74860412 165.51758366 210.57553126 165.52897644 203.737854 C165.53324142 202.58269287 165.53750641 201.42753174 165.54190063 200.23736572 C165.54144745 198.96874695 165.54099426 197.70012817 165.54052734 196.39306641 C165.54351935 195.04439196 165.54692198 193.69571836 165.55070496 192.3470459 C165.5595469 188.68157661 165.56188321 185.01613066 165.56252074 181.35065174 C165.56323137 179.05954813 165.56536597 176.76845046 165.56801796 174.47734833 C165.57727343 166.48115156 165.58135277 158.48497148 165.58056641 150.48876953 C165.5799662 143.04127976 165.59050631 135.59386257 165.60631007 128.14639115 C165.61940089 121.74881851 165.62474962 115.35126954 165.624111 108.95368361 C165.62385638 105.13442292 165.62668745 101.31522664 165.63728905 97.49597931 C165.6469955 93.90087922 165.64703182 90.30590478 165.63977242 86.71080017 C165.63823396 84.76912831 165.64655636 82.8274564 165.6552124 80.88580322 C165.74801093 70.53573667 165.74801093 70.53573667 161.20776367 61.54052734 C155.69937822 57.13381898 150.96807366 55.91621449 143.99487305 55.90284729 C143.28329292 55.89746175 142.5717128 55.89207621 141.83856964 55.88652748 C139.47187123 55.87230476 137.10573664 55.87933719 134.73901367 55.88647461 C133.03507032 55.88076811 131.33113079 55.87380276 129.62719727 55.86567688 C125.01153118 55.84776283 120.39605538 55.84891036 115.78036499 55.85461926 C111.92343023 55.85771317 108.06653192 55.85161653 104.20960236 55.84558052 C95.11000019 55.83154312 86.01049192 55.8330905 76.91088867 55.84448242 C67.52963921 55.85596754 58.1486755 55.84187956 48.76746368 55.81508595 C40.70526366 55.79292344 32.64315331 55.78629268 24.58092499 55.79216236 C19.76904962 55.79553125 14.9573575 55.79312112 10.14550781 55.77591133 C5.6211302 55.76043512 1.09717587 55.76440517 -3.42718506 55.78321648 C-5.08518392 55.78690025 -6.74321419 55.78380001 -8.40118408 55.77333069 C-10.66939041 55.76010402 -12.93619875 55.77168112 -15.2043457 55.7893219 C-16.47193726 55.78953118 -17.73952881 55.78974047 -19.04553223 55.78995609 C-24.78093056 56.59659023 -29.29982933 59.30905378 -32.97973633 63.85302734 Z " fill="#06736B" transform="translate(457.604736328125,379.70947265625)"/>
<path d="M0 0 C1.29744141 -0.04350586 1.29744141 -0.04350586 2.62109375 -0.08789062 C10.98093751 -0.16935837 17.29753695 2.5897436 24.125 7.3125 C24.82109375 7.786875 25.5171875 8.26125 26.234375 8.75 C32.76977378 13.52036407 36.38027245 18.29806133 40.375 25.3125 C40.81585938 26.05113281 41.25671875 26.78976562 41.7109375 27.55078125 C46.28679586 36.68627152 45.6529594 48.95860074 43.6796875 58.76953125 C39.42937419 71.53832964 29.57201644 80.28891959 18.05078125 86.58203125 C7.71878877 91.17222571 -6.51223319 91.3312228 -17.125 87.5 C-28.438976 81.843012 -38.32811029 71.46322711 -42.5 59.5 C-44.00129705 53.73466401 -44.01458676 48.22844703 -43.625 42.3125 C-43.55539063 41.17296875 -43.48578125 40.0334375 -43.4140625 38.859375 C-42.17745848 26.3834144 -36.94525445 17.34894931 -27.390625 9.2890625 C-18.62471544 3.02416104 -10.60601935 0.11545014 0 0 Z " fill="#05736B" transform="translate(132.625,482.6875)"/>
<path d="M0 0 C0.97708923 -0.01004562 1.95417847 -0.02009125 2.96087646 -0.03044128 C4.57464928 -0.03918777 4.57464928 -0.03918777 6.22102356 -0.04811096 C7.35123932 -0.05789474 8.48145508 -0.06767853 9.6459198 -0.07775879 C13.39986484 -0.10776225 17.15377411 -0.12911267 20.90779114 -0.14796448 C22.18802973 -0.1545363 23.46826832 -0.16110813 24.78730202 -0.1678791 C30.16856416 -0.19377713 35.54981305 -0.21726579 40.93111706 -0.23237514 C48.63705475 -0.25426612 56.34229424 -0.29619842 64.04795283 -0.36581272 C70.12307628 -0.41882698 76.19792436 -0.43886553 82.27326393 -0.44757271 C84.85487087 -0.45614041 87.43646495 -0.47499047 90.01791954 -0.50431633 C93.63304908 -0.54317153 97.24636023 -0.5442719 100.86164856 -0.53639221 C102.46023964 -0.56639313 102.46023964 -0.56639313 104.09112549 -0.59700012 C110.26161145 -0.53665698 113.69164767 0.2861416 118.14032459 4.67732143 C122.366118 9.79627919 121.08816128 18.68235835 120.69929504 24.95359802 C120.08652059 28.99701484 118.13107416 31.30412347 115.18904114 33.98094177 C112.02486276 36.02715563 109.34438388 36.28909478 105.67858887 36.30780029 C104.71550812 36.3149556 103.75242737 36.3221109 102.76016235 36.32948303 C101.1774781 36.33351639 101.1774781 36.33351639 99.56282043 36.33763123 C97.89412903 36.34748802 97.89412903 36.34748802 96.19172668 36.35754395 C92.50333085 36.37728555 88.81497572 36.38894073 85.12654114 36.39891052 C83.86803659 36.40298605 82.60953205 36.40706158 81.31289101 36.4112606 C75.34028415 36.42997218 69.36769025 36.44453805 63.39506119 36.45287257 C56.5069546 36.4626441 49.61916943 36.48896397 42.73117608 36.52937347 C36.76019099 36.56319794 30.78928449 36.57501963 24.81820107 36.57907677 C22.28045788 36.58395307 19.74271838 36.59559654 17.20503807 36.61411476 C13.65476644 36.6384144 10.10533695 36.63755758 6.55500793 36.63059998 C5.50595779 36.64341003 4.45690765 36.65622009 3.37606812 36.66941833 C-2.60923678 36.62664001 -6.09556511 36.18465894 -10.63517761 32.16062927 C-13.77508501 27.49753275 -14.24687501 23.25178836 -14.26017761 17.78562927 C-14.26323914 17.03410583 -14.26630066 16.2825824 -14.26945496 15.50828552 C-14.1182358 10.77625746 -13.47526251 7.84458072 -10.26017761 4.16062927 C-6.81494492 0.98477692 -4.66544292 0.03763142 0 0 Z " fill="#97E8DB" transform="translate(470.6351776123047,468.83937072753906)"/>
<path d="M0 0 C0.15855469 0.58007812 0.31710937 1.16015625 0.48046875 1.7578125 C2.12851687 7.27558687 4.03581766 10.82153753 8 15 C6.43413334 18.99756546 3.83643612 21.10187012 0.625 23.875 C-5.7993336 29.56517998 -11.26040189 35.88437023 -16.73242188 42.47705078 C-19.42264172 45.70925251 -22.20159328 48.86148841 -25 52 C-25.84175781 52.94617188 -26.68351563 53.89234375 -27.55078125 54.8671875 C-37.07168639 65.47882089 -46.88030938 73.58878073 -59 81 C-60.12148438 81.74443359 -60.12148438 81.74443359 -61.265625 82.50390625 C-68.08738968 86.78765218 -76.02444417 88.5348821 -83.7734375 90.44799805 C-85.20108668 90.80193607 -86.62383835 91.17664963 -88.0390625 91.57739258 C-95.27129662 93.47602333 -102.56753845 93.35401283 -110 93.3125 C-110.68941681 93.31034485 -111.37883362 93.3081897 -112.08914185 93.30596924 C-137.30832549 93.17931509 -160.77519317 87.12126148 -180 70 C-194 54.91911765 -194 54.91911765 -194 47 C-191.43795456 46.66280953 -188.87545682 46.33012847 -186.3125 46 C-185.59126953 45.90460937 -184.87003906 45.80921875 -184.12695312 45.7109375 C-182.08654754 45.45006373 -180.04533449 45.21844907 -178 45 C-176.59041016 44.8453125 -176.59041016 44.8453125 -175.15234375 44.6875 C-173 45 -173 45 -171.515625 46.6875 C-171.09796875 47.450625 -170.6803125 48.21375 -170.25 49 C-161.84563637 62.55336616 -148.2141619 67.48582206 -133.41015625 71.23828125 C-116.94868191 74.91524287 -97.85678918 75.08127757 -82 69 C-80.82824219 68.57589844 -79.65648437 68.15179687 -78.44921875 67.71484375 C-58.21271825 59.77505831 -43.14834232 44.38242495 -29.75 27.75 C-7.19574468 0 -7.19574468 0 0 0 Z " fill="#05726B" transform="translate(320,535)"/>
<path d="M0 0 C0.92130707 -0.00953201 1.84261414 -0.01906403 2.7918396 -0.02888489 C4.27473984 -0.02751778 4.27473984 -0.02751778 5.78759766 -0.02612305 C6.81092194 -0.03040817 7.83424622 -0.0346933 8.88858032 -0.03910828 C11.05217754 -0.04484811 13.21579405 -0.0453544 15.37939453 -0.04101562 C18.68246577 -0.03786013 21.98463741 -0.06130421 25.28759766 -0.08666992 C27.3917632 -0.08894345 29.49593114 -0.08964616 31.60009766 -0.08862305 C33.0769252 -0.10243767 33.0769252 -0.10243767 34.58358765 -0.11653137 C39.86816198 -0.08104614 43.88723611 0.0868946 48.32666016 3.2746582 C51.97626084 7.56651555 52.83671686 10.63529382 52.85791016 16.2121582 C52.86564453 18.17282227 52.86564453 18.17282227 52.87353516 20.1730957 C52.8609668 21.18388184 52.8609668 21.18388184 52.84814453 22.21508789 C52.82670875 24.26999944 52.84798522 26.32141638 52.87353516 28.3762207 C52.86837891 29.68333008 52.86322266 30.99043945 52.85791016 32.3371582 C52.85339844 33.52438477 52.84888672 34.71161133 52.84423828 35.93481445 C52.22078593 39.95784663 50.85466998 42.11636488 48.32666016 45.2746582 C45.0556452 47.45533484 44.01804305 47.54365166 40.21606445 47.61279297 C39.17455734 47.63523575 38.13305023 47.65767853 37.0599823 47.68080139 C35.37247612 47.69825661 35.37247612 47.69825661 33.65087891 47.71606445 C32.49296341 47.72983627 31.33504791 47.74360809 30.14204407 47.75779724 C27.69004099 47.78108636 25.23797436 47.79834302 22.78588867 47.81005859 C19.03853607 47.83698306 15.29400474 47.91188151 11.54736328 47.98754883 C9.16522083 48.00420591 6.78305605 48.01797241 4.40087891 48.02856445 C3.28194748 48.05841934 2.16301605 48.08827423 1.01017761 48.11903381 C-6.60823702 48.07607153 -6.60823702 48.07607153 -9.71884155 45.73556519 C-15.16393919 39.50877608 -14.98127291 34.2085357 -15.07836914 26.11816406 C-15.11044538 24.11183136 -15.17975096 22.10620616 -15.24951172 20.10083008 C-15.37606198 9.20100136 -15.37606198 9.20100136 -11.89599609 4.97387695 C-8.33716314 1.51127457 -4.96203909 0.02829566 0 0 Z " fill="#97E8DB" transform="translate(538.67333984375,521.725341796875)"/>
<path d="M0 0 C6.47862249 3.75810719 12.43662462 9.92406596 14.625 17.16015625 C16.06314586 33.02992859 16.06314586 33.02992859 12.01953125 39.48828125 C7.03646695 45.46237514 1.2232632 50.41372116 -6.71875 51.47265625 C-12.32847009 51.74967946 -16.4230717 50.68923319 -21.41015625 48.15625 C-23.44916624 47.04808555 -23.44916624 47.04808555 -26.125 46.34765625 C-30.83007927 43.86441997 -32.89351451 39.40764139 -34.75 34.59765625 C-36.2972111 26.80092579 -36.06833917 17.98405584 -31.75 11.16015625 C-23.93660973 1.12237975 -12.89592612 -4.56023703 0 0 Z " fill="#B1F5F2" transform="translate(354.375,503.83984375)"/>
<path d="M0 0 C4.30071676 3.61651182 7.52111368 7.41163267 8.28515625 13.13671875 C8.49064897 18.39911926 7.70203984 22.3803835 5 27 C1.27767953 30.90214271 -2.86403339 34.6015356 -8.3671875 35.30078125 C-15.24374793 35.33291471 -19.30514344 34.25615898 -24.6875 29.75 C-28.92792494 24.7073325 -30.60286029 19.78278224 -30.34765625 13.26953125 C-29.522246 7.88117893 -27.06059447 3.65932099 -23 0.0625 C-15.94166774 -4.79010343 -7.30871419 -4.07601368 0 0 Z " fill="#F8FAFA" transform="translate(144,512)"/>
<path d="M0 0 C5.15075357 1.78295316 7.59985587 4.1073985 10 9 C10.70938379 13.96568654 10.55443248 16.69873987 7.75 20.875 C5.32365228 24.09515284 2.84812622 25.6807782 -1.1484375 26.37109375 C-5.24855334 26.49337791 -8.12677395 26.39925893 -11.4375 23.8125 C-14.91905631 19.99127966 -15.81899238 17.65923651 -16.375 12.5625 C-15.84197709 7.49878239 -13.65275855 4.77081274 -10.25 1.125 C-6.86413798 -0.56793101 -3.66346554 -0.50920757 0 0 Z " fill="#192F2D" transform="translate(348,516)"/>
<path d="M0 0 C2.893615 0.66091821 5.59872163 0.61480062 8.56729984 0.60565853 C9.88107105 0.60414288 11.19484226 0.60262722 12.54842472 0.60106564 C14.00258768 0.59433712 15.45675027 0.58752902 16.91091251 0.58064938 C18.44356024 0.57709279 19.97620912 0.57400692 21.50885868 0.57135677 C24.80788446 0.56480813 28.10688312 0.55525033 31.40589428 0.5434618 C36.61999898 0.5251762 41.83409708 0.51557229 47.04822636 0.50754452 C61.87455471 0.48338605 76.70084286 0.44746379 91.52712345 0.402915 C99.71653732 0.3783849 107.90593551 0.36101266 116.09538072 0.35135561 C121.28127064 0.34480398 126.46703157 0.32922747 131.65287697 0.30703819 C134.87503243 0.29532859 138.09715626 0.291942 141.31933117 0.29094028 C142.81614939 0.28878839 144.31296713 0.28318163 145.80975819 0.27390957 C147.84910326 0.26176295 149.88851531 0.26305353 151.92789555 0.26508236 C153.07033254 0.26193995 154.21276953 0.25879755 155.38982582 0.25555992 C158.18410587 0.49886227 158.18410587 0.49886227 161.18410587 2.49886227 C103.10410587 2.49886227 45.02410587 2.49886227 -14.81589413 2.49886227 C-14.48589413 1.83886227 -14.15589413 1.17886227 -13.81589413 0.49886227 C-9.43922749 -0.78839263 -4.4298345 -1.22251468 0 0 Z " fill="#076861" transform="translate(450.8158941268921,433.5011377334595)"/>
<path d="M0 0 C3.60067126 0.87838956 4.94522296 2.42198203 6.9375 5.47265625 C7.69129649 8.65471319 7.74139864 11.29725661 6.9375 14.47265625 C3.90838372 18.0928196 2.00104653 19.26741043 -2.625 20.16015625 C-6.32596754 19.41996274 -7.97329634 18.41549893 -10.17578125 15.3203125 C-11.88956788 11.74929454 -11.68728036 9.40877254 -11.0625 5.47265625 C-8.05702667 0.96444626 -5.25949719 -0.38848559 0 0 Z " fill="#F2F7F7" transform="translate(517.0625,399.52734375)"/>
<path d="M0 0 C3.55247432 0.87379409 4.94828114 2.4927342 6.9375 5.4765625 C7.72836981 9.31684378 7.48230352 12.48601064 5.5625 15.9765625 C3.9375 17.4765625 3.9375 17.4765625 1.9375 17.4765625 C1.9375 18.1365625 1.9375 18.7965625 1.9375 19.4765625 C-0.9907842 19.77435411 -3.20602326 19.97288193 -6.0625 19.4765625 C-9.15709236 16.89773553 -10.61673234 15.35097899 -11.5390625 11.47265625 C-11.81143845 7.69523183 -11.14803819 5.60486978 -9.0625 2.4765625 C-5.73362371 0.25731164 -3.92313492 -0.28234683 0 0 Z " fill="#F0F6F6" transform="translate(483.0625,399.5234375)"/>
<path d="M0 0 C3.4375 2 3.4375 2 6 5 C6.74640732 7.82609184 6.68717509 10.16540277 6 13 C4.20636089 15.8100346 2.98119065 17.50940468 0 19 C-3.87214182 19.43023798 -5.52496371 19.31669086 -8.8125 17.125 C-11.79857385 14.22424254 -11.95683819 13.43881175 -12.375 9.1875 C-12.31879192 5.75880687 -11.99773575 4.99670655 -9.9375 2 C-6.20163958 -0.54356454 -4.44000949 -0.77894903 0 0 Z " fill="#F1F7F6" transform="translate(450,400)"/>
<path d="M0 0 C2.9375 1.5 2.9375 1.5 5 4 C5.41708655 6.80196606 5.23811939 9.14256735 5 12 C4.34 12 3.68 12 3 12 C3 12.66 3 13.32 3 14 C0.24832603 15.8711383 -1.16177901 15.99432354 -4.5625 15.875 C-8 15 -8 15 -9.9375 13.375 C-11.43699866 10.02317947 -11.45377473 7.63019782 -11 4 C-8.10445004 -0.51705794 -5.12679803 -0.7195506 0 0 Z " fill="#A6F0E6" transform="translate(232,530)"/>
<path d="M0 0 C3.71317907 1.14770989 5.2692056 1.85342428 7.4375 5.0625 C8 8 8 8 7.4375 11.0625 C4.80538535 14.73150829 3.34895674 15.90259531 -1.125 16.6875 C-4.5625 16.0625 -4.5625 16.0625 -7 13.9375 C-8.85305839 10.52787255 -9.27838388 8.88054737 -8.5625 5.0625 C-5.88937913 1.25532785 -4.71546409 0.08272744 0 0 Z " fill="#A7F1E7" transform="translate(260.5625,528.9375)"/>
<path d="M0 0 C2.875 1.5 2.875 1.5 5 4 C5.94237143 7.99893269 5.61136591 10.98105682 3.5 14.5 C-0.28726141 16.77235685 -2.61177849 16.55723448 -7 16 C-9.36110026 14.22917481 -9.84291198 12.9703665 -10.30859375 10.09375 C-10.5291362 6.51160594 -10.36111402 4.55556004 -8.375 1.5 C-5.25991849 -0.4674199 -3.62829011 -0.5923739 0 0 Z " fill="#A2EFE5" transform="translate(199,529)"/>
<path d="M0 0 C2.4375 1 2.4375 1 4 3 C4.56111226 5.77663799 4.56111226 8.22336201 4 11 C1.72045596 13.91781637 0.17436907 13.97820387 -3.5 14.4375 C-7 14 -7 14 -9.4375 12.375 C-11.47161336 9.28314769 -11.60605429 7.63632575 -11 4 C-8.04627097 -0.48966812 -5.14336369 -0.64292046 0 0 Z " fill="#A2EFE4" transform="translate(294,524)"/>
<path d="M0 0 C2 2 2 2 2.01171875 3.84765625 C1.90472656 4.57855469 1.79773438 5.30945313 1.6875 6.0625 C1.57921875 6.8565625 1.4709375 7.650625 1.359375 8.46875 C1.24078125 9.3040625 1.1221875 10.139375 1 11 C0.80692439 12.68687116 0.61913546 14.3743587 0.4375 16.0625 C0.293125 17.361875 0.14875 18.66125 0 20 C-0.33 20 -0.66 20 -1 20 C-1.99939172 12.77466796 -1.96290189 7.04335384 0 0 Z " fill="#066963" transform="translate(91,516)"/>
<path d="M0 0 C4.29 0 8.58 0 13 0 C12.67 0.66 12.34 1.32 12 2 C8.01624339 3.17169312 4.12560776 3.08089427 0 3 C0 2.01 0 1.02 0 0 Z " fill="#107D75" transform="translate(205,609)"/>
<path d="M0 0 C0.66 0.33 1.32 0.66 2 1 C0.68 1.33 -0.64 1.66 -2 2 C-2 2.66 -2 3.32 -2 4 C-5 6 -5 6 -7.6875 5.625 C-8.450625 5.41875 -9.21375 5.2125 -10 5 C-6.76527494 2.84351662 -3.62848922 1.38542316 0 0 Z " fill="#308881" transform="translate(245,601)"/>
<path d="M0 0 C1.485 0.99 1.485 0.99 3 2 C2.74438677 4.3431213 2.40729228 6.67843403 2 9 C1.01 9.495 1.01 9.495 0 10 C0 6.7 0 3.4 0 0 Z " fill="#06645D" transform="translate(152,523)"/>
<path d="M0 0 C0.99 0.33 1.98 0.66 3 1 C2.360625 1.103125 1.72125 1.20625 1.0625 1.3125 C0.381875 1.539375 -0.29875 1.76625 -1 2 C-1.33 2.99 -1.66 3.98 -2 5 C-3.95597184 6.39712274 -5.95436401 7.73779907 -8 9 C-6.40758592 4.70048197 -3.64459275 2.60328053 0 0 Z " fill="#DFF1EF" transform="translate(431,438)"/>
<path d="M0 0 C0.33 0.99 0.66 1.98 1 3 C-0.98 3.99 -2.96 4.98 -5 6 C-5.66 5.34 -6.32 4.68 -7 4 C-4.69 2.68 -2.38 1.36 0 0 Z " fill="#198379" transform="translate(257,595)"/>
<path d="M0 0 C1.98 0 3.96 0 6 0 C5.01 0.33 4.02 0.66 3 1 C3.33 3.31 3.66 5.62 4 8 C1.84622436 5.37801226 0.59927826 3.35595828 0 0 Z " fill="#138077" transform="translate(127,584)"/>
<path d="M0 0 C2.64752004 2.57784846 4.94432065 4.91648098 7 8 C6.01 8 5.02 8 4 8 C0 3.77142857 0 3.77142857 0 0 Z " fill="#D2F1F0" transform="translate(322,541)"/>
<path d="M0 0 C0.66 0.66 1.32 1.32 2 2 C-0.85306797 4.32472205 -3.54074837 5.7508258 -7 7 C-4.66666667 4.66666667 -2.33333333 2.33333333 0 0 Z " fill="#167B73" transform="translate(271,584)"/>
<path d="M0 0 C0.99 1.32 1.98 2.64 3 4 C2.360625 4.28875 1.72125 4.5775 1.0625 4.875 C-1.15206079 5.82823451 -1.15206079 5.82823451 -2 8 C-1.125 2.25 -1.125 2.25 0 0 Z " fill="#2D8984" transform="translate(93,507)"/>
</svg>
