<svg xmlns="http://www.w3.org/2000/svg" viewBox="10 22 240 115">
  <rect x="10" y="22" width="240" height="115" rx="18" fill="#F8FAF7" />
  <path d="M 54 92 C 68 140, 105 125, 120 87" fill="none" stroke="#007B75" stroke-width="11" stroke-linecap="round" />
  <path d="M 125 80 Q 135 76 150 76" fill="none" stroke="#007B75" stroke-width="11" stroke-linecap="round" />
  <circle cx="45" cy="80" r="16" fill="#FFFFFF" stroke="#007B75" stroke-width="11" />
  <circle cx="68" cy="80" r="4.5" fill="#8AE0D2" />
  <circle cx="81" cy="80" r="4.5" fill="#8AE0D2" />
  <circle cx="94" cy="80" r="4.5" fill="#8AE0D2" />
  <circle cx="107" cy="80" r="4.5" fill="#8AE0D2" />
  <circle cx="125" cy="80" r="13" fill="#8AE0D2" />
  <circle cx="125" cy="80" r="5" fill="#007B75" />
  <rect x="150" y="30" width="95" height="95" rx="15" fill="#FFFFFF" />
  <path d="M 150 45 C 150 36.7 156.7 30 165 30 L 230 30 C 238.3 30 245 36.7 245 45 L 245 55 L 150 55 Z" fill="#007B75" />
  <rect x="150" y="30" width="95" height="95" rx="15" fill="none" stroke="#007B75" stroke-width="11" />
  <circle cx="165" cy="42.5" r="3.5" fill="#FFFFFF" />
  <circle cx="178" cy="42.5" r="3.5" fill="#FFFFFF" />
  <circle cx="191" cy="42.5" r="3.5" fill="#FFFFFF" />
  <rect x="165" y="68" width="60" height="16" rx="6" fill="#8AE0D2" />
  <rect x="190" y="90" width="35" height="18" rx="6" fill="#8AE0D2" />
</svg>
