<?xml version="1.0" encoding="UTF-8"?>
<svg xmlns="http://www.w3.org/2000/svg" viewBox="70 360 1310 300" role="img" aria-labelledby="sakala-logo-title">
<title id="sakala-logo-title">Sakala</title>
<path d="M0 0 C1.57937434 -0.00599148 3.15874577 -0.01279845 4.7381134 -0.02035522 C9.01098505 -0.03795896 13.2837765 -0.04270821 17.55668092 -0.0439868 C20.23094333 -0.0454121 22.90518559 -0.04968886 25.57944298 -0.05498123 C34.92244121 -0.0734626 44.26538253 -0.08165418 53.60839844 -0.08007812 C62.29601174 -0.07887711 70.98337645 -0.09997648 79.67092687 -0.13156545 C87.14806777 -0.15777738 94.62512772 -0.16844337 102.10231417 -0.16716731 C106.55997039 -0.16665914 111.01740549 -0.1722618 115.47501564 -0.19352341 C119.67027935 -0.21298907 123.86511286 -0.21297389 128.06039238 -0.19849014 C129.59255227 -0.19641125 131.1247397 -0.20104761 132.65685272 -0.21321106 C146.25522618 -0.31410383 156.89581594 2.30684495 167.39526367 11.29052734 C176.59163859 20.44656729 179.02277594 32.68488124 179.10623169 45.15328979 C179.10129673 46.78082444 179.09581617 48.4083575 179.08984375 50.03588867 C179.10155662 51.78523694 179.11533363 53.53457241 179.1309967 55.28388977 C179.16635851 59.99904729 179.17013034 64.71371076 179.16568589 69.42898011 C179.16448928 73.38232346 179.1779878 77.33556664 179.19106883 81.28888434 C179.2213119 90.62487233 179.22475745 99.96061067 179.21191406 109.29663086 C179.19924023 118.88942811 179.23440593 128.48121835 179.29279786 138.07382375 C179.34128921 146.34524127 179.35844985 154.616338 179.35132331 162.88789386 C179.34746466 167.81253643 179.35527379 172.73642028 179.39393044 177.66092873 C179.42906583 182.2966052 179.42470959 186.93068341 179.39159203 191.56635857 C179.38587112 193.2544569 179.39341675 194.94266857 179.41619873 196.63062286 C179.58817646 210.34921783 176.29871347 221.78324656 167.14526367 232.41552734 C159.4683868 239.1394126 148.73846013 243.52902181 138.59761047 243.55795288 C137.93870967 243.56248399 137.27980886 243.56701511 136.60094136 243.57168353 C134.40641442 243.5842823 132.21213709 243.58271011 130.01757812 243.58105469 C128.43849877 243.58704291 126.85942234 243.59384913 125.28034973 243.60140991 C120.99909553 243.61905055 116.71792133 243.62376457 112.4366343 243.62504148 C109.75802741 243.62646512 107.07944072 243.63073882 104.40083885 243.63603592 C95.04488209 243.65453214 85.68898225 243.66270733 76.33300781 243.66113281 C67.63066732 243.6599326 58.92857533 243.68101237 50.22629768 243.71262014 C42.74070461 243.73883362 35.25519242 243.74949794 27.76955384 243.74822199 C23.30516106 243.74771371 18.84098904 243.7533224 14.37664223 243.77457809 C10.17319754 243.79404535 5.9701822 243.79402748 1.76672173 243.77954483 C0.23133843 243.77746587 -1.30407234 243.78210272 -2.83940887 243.79426575 C-16.33217721 243.89415943 -26.51077457 241.63532788 -36.60473633 232.29052734 C-44.44061464 224.55959383 -48.65381131 215.28372698 -48.83178711 204.26342773 C-48.83147256 201.88832281 -48.82029891 199.51320221 -48.80004883 197.13818359 C-48.79721893 195.88291367 -48.79438904 194.62764374 -48.79147339 193.33433533 C-48.7822076 190.01838388 -48.76427932 186.70271433 -48.74206543 183.38684082 C-48.72150228 179.99473489 -48.71244942 176.60259969 -48.70239258 173.21044922 C-48.68038757 166.57039817 -48.64695128 159.93047901 -48.60473633 153.29052734 C-53.36813459 152.65676081 -58.04857687 152.14934566 -62.85473633 151.97412109 C-63.95688477 151.93222656 -65.0590332 151.89033203 -66.19458008 151.84716797 C-67.31993164 151.80785156 -68.4452832 151.76853516 -69.60473633 151.72802734 C-70.76102539 151.68484375 -71.91731445 151.64166016 -73.10864258 151.59716797 C-75.94057487 151.49184817 -78.7725838 151.38971647 -81.60473633 151.29052734 C-81.65879639 150.53779541 -81.71285645 149.78506348 -81.76855469 149.00952148 C-81.84726807 148.02072998 -81.92598145 147.03193848 -82.00708008 146.01318359 C-82.08176514 145.03357666 -82.1564502 144.05396973 -82.23339844 143.04467773 C-82.68627703 139.68575377 -83.89221159 137.19437363 -85.60473633 134.29052734 C-85.60473633 133.63052734 -85.60473633 132.97052734 -85.60473633 132.29052734 C-81.13105076 131.17432065 -76.74790522 131.14201664 -72.16723633 131.16552734 C-71.44858398 131.16166016 -70.72993164 131.15779297 -69.98950195 131.15380859 C-65.06804159 131.1623306 -60.19245385 131.4375114 -55.28417969 131.79882812 C-54.03108505 131.8904422 -52.77799042 131.98205627 -51.48692322 132.07644653 C-50.06024071 132.18241653 -50.06024071 132.18241653 -48.60473633 132.29052734 C-48.61361877 131.04739777 -48.62250122 129.80426819 -48.63165283 128.52346802 C-48.71289336 116.78315042 -48.77277603 105.04289018 -48.81198502 93.30235481 C-48.83282072 87.26704274 -48.8610653 81.23195838 -48.90649414 75.19677734 C-48.95009463 69.36772308 -48.97390363 63.53888727 -48.9842453 57.70968246 C-48.99161116 55.49062539 -49.0059948 53.27157969 -49.02765656 51.05261612 C-49.05687885 47.93390726 -49.06068441 44.81609031 -49.05883789 41.69726562 C-49.07321899 40.78879379 -49.0876001 39.88032196 -49.10241699 38.94432068 C-49.03243581 27.95362203 -44.35993384 19.14234133 -36.91723633 11.22802734 C-26.09756522 0.72953385 -14.37579492 -0.01089851 0 0 Z " fill="#FBFCFC" transform="translate(457.604736328125,379.70947265625)"/>
<path d="M0 0 C1.57937434 -0.00599148 3.15874577 -0.01279845 4.7381134 -0.02035522 C9.01098505 -0.03795896 13.2837765 -0.04270821 17.55668092 -0.0439868 C20.23094333 -0.0454121 22.90518559 -0.04968886 25.57944298 -0.05498123 C34.92244121 -0.0734626 44.26538253 -0.08165418 53.60839844 -0.08007812 C62.29601174 -0.07887711 70.98337645 -0.09997648 79.67092687 -0.13156545 C87.14806777 -0.15777738 94.62512772 -0.16844337 102.10231417 -0.16716731 C106.55997039 -0.16665914 111.01740549 -0.1722618 115.47501564 -0.19352341 C119.67027935 -0.21298907 123.86511286 -0.21297389 128.06039238 -0.19849014 C129.59255227 -0.19641125 131.1247397 -0.20104761 132.65685272 -0.21321106 C146.25522618 -0.31410383 156.89581594 2.30684495 167.39526367 11.29052734 C176.59163859 20.44656729 179.02277594 32.68488124 179.10623169 45.15328979 C179.10129673 46.78082444 179.09581617 48.4083575 179.08984375 50.03588867 C179.10155662 51.78523694 179.11533363 53.53457241 179.1309967 55.28388977 C179.16635851 59.99904729 179.17013034 64.71371076 179.16568589 69.42898011 C179.16448928 73.38232346 179.1779878 77.33556664 179.19106883 81.28888434 C179.2213119 90.62487233 179.22475745 99.96061067 179.21191406 109.29663086 C179.19924023 118.88942811 179.23440593 128.48121835 179.29279786 138.07382375 C179.34128921 146.34524127 179.35844985 154.616338 179.35132331 162.88789386 C179.34746466 167.81253643 179.35527379 172.73642028 179.39393044 177.66092873 C179.42906583 182.2966052 179.42470959 186.93068341 179.39159203 191.56635857 C179.38587112 193.2544569 179.39341675 194.94266857 179.41619873 196.63062286 C179.58817646 210.34921783 176.29871347 221.78324656 167.14526367 232.41552734 C159.4683868 239.1394126 148.73846013 243.52902181 138.59761047 243.55795288 C137.93870967 243.56248399 137.27980886 243.56701511 136.60094136 243.57168353 C134.40641442 243.5842823 132.21213709 243.58271011 130.01757812 243.58105469 C128.43849877 243.58704291 126.85942234 243.59384913 125.28034973 243.60140991 C120.99909553 243.61905055 116.71792133 243.62376457 112.4366343 243.62504148 C109.75802741 243.62646512 107.07944072 243.63073882 104.40083885 243.63603592 C95.04488209 243.65453214 85.68898225 243.66270733 76.33300781 243.66113281 C67.63066732 243.6599326 58.92857533 243.68101237 50.22629768 243.71262014 C42.74070461 243.73883362 35.25519242 243.74949794 27.76955384 243.74822199 C23.30516106 243.74771371 18.84098904 243.7533224 14.37664223 243.77457809 C10.17319754 243.79404535 5.9701822 243.79402748 1.76672173 243.77954483 C0.23133843 243.77746587 -1.30407234 243.78210272 -2.83940887 243.79426575 C-16.33217721 243.89415943 -26.51077457 241.63532788 -36.60473633 232.29052734 C-44.44061464 224.55959383 -48.65381131 215.28372698 -48.83178711 204.26342773 C-48.83147256 201.88832281 -48.82029891 199.51320221 -48.80004883 197.13818359 C-48.79721893 195.88291367 -48.79438904 194.62764374 -48.79147339 193.33433533 C-48.7822076 190.01838388 -48.76427932 186.70271433 -48.74206543 183.38684082 C-48.72150228 179.99473489 -48.71244942 176.60259969 -48.70239258 173.21044922 C-48.68038757 166.57039817 -48.64695128 159.93047901 -48.60473633 153.29052734 C-53.36813459 152.65676081 -58.04857687 152.14934566 -62.85473633 151.97412109 C-63.95688477 151.93222656 -65.0590332 151.89033203 -66.19458008 151.84716797 C-67.31993164 151.80785156 -68.4452832 151.76853516 -69.60473633 151.72802734 C-70.76102539 151.68484375 -71.91731445 151.64166016 -73.10864258 151.59716797 C-75.94057487 151.49184817 -78.7725838 151.38971647 -81.60473633 151.29052734 C-81.65879639 150.53779541 -81.71285645 149.78506348 -81.76855469 149.00952148 C-81.84726807 148.02072998 -81.92598145 147.03193848 -82.00708008 146.01318359 C-82.08176514 145.03357666 -82.1564502 144.05396973 -82.23339844 143.04467773 C-82.68627703 139.68575377 -83.89221159 137.19437363 -85.60473633 134.29052734 C-85.60473633 133.63052734 -85.60473633 132.97052734 -85.60473633 132.29052734 C-81.13105076 131.17432065 -76.74790522 131.14201664 -72.16723633 131.16552734 C-71.44858398 131.16166016 -70.72993164 131.15779297 -69.98950195 131.15380859 C-65.06804159 131.1623306 -60.19245385 131.4375114 -55.28417969 131.79882812 C-54.03108505 131.8904422 -52.77799042 131.98205627 -51.48692322 132.07644653 C-50.06024071 132.18241653 -50.06024071 132.18241653 -48.60473633 132.29052734 C-48.61361877 131.04739777 -48.62250122 129.80426819 -48.63165283 128.52346802 C-48.71289336 116.78315042 -48.77277603 105.04289018 -48.81198502 93.30235481 C-48.83282072 87.26704274 -48.8610653 81.23195838 -48.90649414 75.19677734 C-48.95009463 69.36772308 -48.97390363 63.53888727 -48.9842453 57.70968246 C-48.99161116 55.49062539 -49.0059948 53.27157969 -49.02765656 51.05261612 C-49.05687885 47.93390726 -49.06068441 44.81609031 -49.05883789 41.69726562 C-49.07321899 40.78879379 -49.0876001 39.88032196 -49.10241699 38.94432068 C-49.03243581 27.95362203 -44.35993384 19.14234133 -36.91723633 11.22802734 C-26.09756522 0.72953385 -14.37579492 -0.01089851 0 0 Z M-32.97973633 63.85302734 C-33.4618457 64.43181641 -33.94395508 65.01060547 -34.44067383 65.60693359 C-36.72981717 68.91774158 -36.73858976 71.9153828 -36.7653656 75.80955505 C-36.77541122 76.95749039 -36.78545685 78.10542572 -36.79580688 79.28814697 C-36.80163788 80.54891052 -36.80746887 81.80967407 -36.81347656 83.10864258 C-36.82301727 84.44920597 -36.83290852 85.7897669 -36.84312439 87.13032532 C-36.87450304 91.53656089 -36.89478454 95.94281524 -36.91333008 100.34912109 C-36.9166274 101.10002179 -36.91992472 101.85092249 -36.92332196 102.62457776 C-36.95411749 109.71439204 -36.98081128 116.80421068 -36.99774075 123.89407253 C-37.01960509 132.94313301 -37.06147993 141.99159695 -37.13117832 151.04041904 C-37.17857921 157.41258532 -37.20269613 163.78459165 -37.20993763 170.1569286 C-37.21487232 173.95704925 -37.22974058 177.75649759 -37.26968193 181.55642509 C-37.30684512 185.13948568 -37.31486293 188.72149839 -37.3016758 192.30471611 C-37.30175453 194.22763403 -37.33141752 196.15048177 -37.36236572 198.07315063 C-37.28464501 207.48091 -34.9759504 215.45613717 -28.55081844 222.56207943 C-22.7607237 228.06741844 -16.76972865 230.66140006 -8.79399109 230.6782074 C-8.14578095 230.68359294 -7.49757081 230.68897847 -6.82971793 230.69452721 C-4.67729597 230.70873112 -2.52549563 230.70172229 -0.37304688 230.69458008 C1.17824799 230.70028775 2.72953866 230.70725354 4.28082275 230.71537781 C8.48141977 230.73328343 12.68180759 230.7321454 16.88243127 230.72643542 C20.39610926 230.72333891 23.90974735 230.72944138 27.42341965 230.73547417 C35.71769783 230.74951012 44.01187299 230.74796669 52.30615234 230.73657227 C60.84552174 230.72509991 69.38457675 230.73915391 77.92390472 230.76596874 C85.27023595 230.7881685 92.61646882 230.79475327 99.9628312 230.78889233 C104.34388678 230.78553079 108.72474101 230.78788378 113.1057682 230.80514336 C117.22880949 230.8206781 121.35138759 230.8165852 125.47441101 230.79783821 C126.98118187 230.79416988 128.48798754 230.7972092 129.99472618 230.807724 C141.00961818 230.87867774 150.54336217 229.7756035 158.92651367 222.00537109 C163.42889267 216.74860412 165.51758366 210.57553126 165.52897644 203.737854 C165.53324142 202.58269287 165.53750641 201.42753174 165.54190063 200.23736572 C165.54144745 198.96874695 165.54099426 197.70012817 165.54052734 196.39306641 C165.54351935 195.04439196 165.54692198 193.69571836 165.55070496 192.3470459 C165.5595469 188.68157661 165.56188321 185.01613066 165.56252074 181.35065174 C165.56323137 179.05954813 165.56536597 176.76845046 165.56801796 174.47734833 C165.57727343 166.48115156 165.58135277 158.48497148 165.58056641 150.48876953 C165.5799662 143.04127976 165.59050631 135.59386257 165.60631007 128.14639115 C165.61940089 121.74881851 165.62474962 115.35126954 165.624111 108.95368361 C165.62385638 105.13442292 165.62668745 101.31522664 165.63728905 97.49597931 C165.6469955 93.90087922 165.64703182 90.30590478 165.63977242 86.71080017 C165.63823396 84.76912831 165.64655636 82.8274564 165.6552124 80.88580322 C165.74801093 70.53573667 165.74801093 70.53573667 161.20776367 61.54052734 C155.69937822 57.13381898 150.96807366 55.91621449 143.99487305 55.90284729 C143.28329292 55.89746175 142.5717128 55.89207621 141.83856964 55.88652748 C139.47187123 55.87230476 137.10573664 55.87933719 134.73901367 55.88647461 C133.03507032 55.88076811 131.33113079 55.87380276 129.62719727 55.86567688 C125.01153118 55.84776283 120.39605538 55.84891036 115.78036499 55.85461926 C111.92343023 55.85771317 108.06653192 55.85161653 104.20960236 55.84558052 C95.11000019 55.83154312 86.01049192 55.8330905 76.91088867 55.84448242 C67.52963921 55.85596754 58.1486755 55.84187956 48.76746368 55.81508595 C40.70526366 55.79292344 32.64315331 55.78629268 24.58092499 55.79216236 C19.76904962 55.79553125 14.9573575 55.79312112 10.14550781 55.77591133 C5.6211302 55.76043512 1.09717587 55.76440517 -3.42718506 55.78321648 C-5.08518392 55.78690025 -6.74321419 55.78380001 -8.40118408 55.77333069 C-10.66939041 55.76010402 -12.93619875 55.77168112 -15.2043457 55.7893219 C-16.47193726 55.78953118 -17.73952881 55.78974047 -19.04553223 55.78995609 C-24.78093056 56.59659023 -29.29982933 59.30905378 -32.97973633 63.85302734 Z " fill="#06736B" transform="translate(457.604736328125,379.70947265625)"/>
<path d="M0 0 C2.15303542 1.66242571 4.17434696 3.39640568 6.1953125 5.21484375 C7.5153125 6.20484375 8.8353125 7.19484375 10.1953125 8.21484375 C10.1953125 3.92484375 10.1953125 -0.36515625 10.1953125 -4.78515625 C19.1053125 -4.78515625 28.0153125 -4.78515625 37.1953125 -4.78515625 C37.1953125 30.19484375 37.1953125 65.17484375 37.1953125 101.21484375 C27.9553125 101.21484375 18.7153125 101.21484375 9.1953125 101.21484375 C8.8653125 97.58484375 8.5353125 93.95484375 8.1953125 90.21484375 C6.9578125 91.43171875 5.7203125 92.64859375 4.4453125 93.90234375 C-4.61856505 101.99099397 -15.31394346 104.62257815 -27.19921875 104.48828125 C-40.87159577 103.45137292 -52.65325285 97.397119 -61.9609375 87.421875 C-73.47138494 73.64347923 -76.22661823 58.30154132 -75.07519531 40.79541016 C-73.91464676 29.72411213 -70.19006205 19.65085735 -62.8046875 11.21484375 C-62.20914063 10.51101563 -61.61359375 9.8071875 -61 9.08203125 C-45.40849405 -7.9327657 -19.74292391 -12.56617859 0 0 Z " fill="#171818" transform="translate(905.8046875,444.78515625)"/>
<path d="M0 0 C6.13646673 4.41381048 6.13646673 4.41381048 8.64453125 6.921875 C8.97453125 2.961875 9.30453125 -0.998125 9.64453125 -5.078125 C18.55453125 -5.078125 27.46453125 -5.078125 36.64453125 -5.078125 C36.64453125 29.901875 36.64453125 64.881875 36.64453125 100.921875 C27.73453125 100.921875 18.82453125 100.921875 9.64453125 100.921875 C9.64453125 96.961875 9.64453125 93.001875 9.64453125 88.921875 C8.98453125 88.921875 8.32453125 88.921875 7.64453125 88.921875 C7.39703125 89.52 7.14953125 90.118125 6.89453125 90.734375 C3.09268675 97.38760287 -6.39272834 100.6739704 -13.35546875 102.921875 C-26.61361166 106.17141983 -39.6824697 103.60434305 -51.23046875 96.609375 C-64.18064568 87.73193487 -71.73441122 75.49943296 -74.9375 60.12890625 C-77.21021744 42.69057897 -74.7947678 26.46674818 -64.35546875 11.921875 C-48.31070182 -7.43324347 -21.85964511 -13.53822025 0 0 Z " fill="#171918" transform="translate(1147.35546875,445.078125)"/>
<path d="M0 0 C3.40222389 2.4655077 6.06694089 4.96218878 9 8 C9.33 4.04 9.66 0.08 10 -4 C18.91 -4 27.82 -4 37 -4 C37 30.98 37 65.96 37 102 C28.09 102 19.18 102 10 102 C10 98.04 10 94.08 10 90 C9.34 90 8.68 90 8 90 C7.7421875 90.598125 7.484375 91.19625 7.21875 91.8125 C3.4526304 98.57220184 -4.97217351 101.76439451 -12 104 C-23.86820314 106.89048173 -37.29156614 105.18738259 -48.0078125 99.2734375 C-61.23902725 90.81583748 -69.5728836 79.45245437 -73.74609375 64.2890625 C-77.21829862 47.95772647 -75.06791498 30.91281541 -66.04296875 16.75 C-50.3089211 -4.42929168 -23.87155291 -13.164557 0 0 Z " fill="#171919" transform="translate(1323,444)"/>
<path d="M0 0 C1.0098999 0.01087646 2.0197998 0.02175293 3.06030273 0.03295898 C17.86904166 0.34961482 32.84082006 4.89915761 43.81640625 15.35546875 C49.51583879 21.94742987 54.5625 29.44767429 54.5625 38.375 C53.74007812 38.61734375 52.91765625 38.8596875 52.0703125 39.109375 C45.73682392 41.01088427 39.57481801 43.05060936 33.48828125 45.640625 C31.5625 46.375 31.5625 46.375 29.5625 46.375 C29.19898438 45.63894531 28.83546875 44.90289062 28.4609375 44.14453125 C24.15854417 35.79347548 20.89236795 31.30328756 11.79638672 28.00341797 C8.05103563 26.94980773 4.43157532 26.90118615 0.5625 26.9375 C-0.57058594 26.9075293 -0.57058594 26.9075293 -1.7265625 26.87695312 C-7.3856678 26.8818149 -11.71382233 28.22151225 -16.4375 31.375 C-20.74746764 36.01650361 -21.74145183 38.9468395 -21.65234375 45.125 C-21.24757971 49.3639834 -19.3315787 51.56000046 -16.2734375 54.34765625 C-13.0177304 56.67508323 -10.05618379 57.77728811 -6.25 59 C-5.58363525 59.21454834 -4.91727051 59.42909668 -4.23071289 59.65014648 C0.14437881 61.02565881 4.48559182 62.05268896 8.9921875 62.86328125 C23.12930836 65.67781443 38.92778304 70.23283835 49.5625 80.375 C50.40361328 81.17357422 50.40361328 81.17357422 51.26171875 81.98828125 C59.34019716 90.51443353 61.39971188 99.87318649 61.3671875 111.30957031 C60.88044133 122.3280905 55.93486132 133.09024642 48.14453125 141.00390625 C47.36142578 141.68259766 47.36142578 141.68259766 46.5625 142.375 C45.98886719 142.87902344 45.41523437 143.38304687 44.82421875 143.90234375 C29.99671387 155.21731349 8.13127522 157.35490007 -9.79882812 155.07470703 C-24.16085081 152.55589832 -37.64263445 145.87921068 -46.2890625 133.78515625 C-47.77262186 131.35518833 -49.13368938 128.90516713 -50.4375 126.375 C-51.05625 125.240625 -51.675 124.10625 -52.3125 122.9375 C-53.4375 120.375 -53.4375 120.375 -53.4375 117.375 C-50.34940305 115.61037317 -49.20437864 115.375 -45.4375 115.375 C-45.4375 114.715 -45.4375 114.055 -45.4375 113.375 C-43.37700145 112.55743762 -41.31401147 111.74615266 -39.25 110.9375 C-38.10144531 110.48503906 -36.95289063 110.03257812 -35.76953125 109.56640625 C-32.96626767 108.56406699 -30.36637424 107.85487205 -27.4375 107.375 C-27.05271484 108.31859375 -27.05271484 108.31859375 -26.66015625 109.28125 C-23.00705861 117.44844472 -17.8042764 123.93022278 -9.3125 127.375 C1.12949694 130.21948071 13.28945304 129.4206489 22.8125 124.25 C27.67490978 120.98605957 29.77914646 116.97567767 31.0078125 111.328125 C31.36743574 107.29409038 30.47565109 104.71726191 28.0625 101.625 C24.69797317 98.1414451 21.02277818 96.16092439 16.5625 94.375 C15.20125 93.818125 15.20125 93.818125 13.8125 93.25 C10.84237024 92.45034968 7.97173869 91.92219008 4.9375 91.4375 C-12.00896908 88.72104996 -32.51309969 83.79841362 -43.4375 69.375 C-50.15634778 58.26484986 -53.35843009 47.01415819 -50.78515625 34.1015625 C-47.58238819 22.30767841 -40.5243852 13.33495626 -30.09375 6.9375 C-20.45240322 1.8117207 -10.85792051 -0.15984993 0 0 Z " fill="#171818" transform="translate(756.4375,393.625)"/>
<path d="M0 0 C9.24 0 18.48 0 28 0 C28 28.71 28 57.42 28 87 C30.8966026 84.1033974 33.76308904 81.2287483 36.56640625 78.25 C37.21109863 77.56534668 37.85579102 76.88069336 38.52001953 76.17529297 C39.53104736 75.09852295 39.53104736 75.09852295 40.5625 74 C41.61606689 72.87875732 41.61606689 72.87875732 42.69091797 71.73486328 C47.01554916 67.12722964 51.33150445 62.51167014 55.625 57.875 C56.08463135 57.38 56.5442627 56.885 57.01782227 56.375 C59.79907468 53.43784092 59.79907468 53.43784092 62.03857422 50.09448242 C63.51114369 47.68091851 64.56533167 46.48502707 67 45 C72.97775139 44.11705557 78.85228051 44.34153195 84.875 44.5625 C86.53378875 44.59763834 88.19264866 44.62957296 89.8515625 44.65820312 C93.90280528 44.73508293 97.95062012 44.85571904 102 45 C100.42637662 48.29713623 98.64904404 50.72180036 96.1875 53.4375 C95.18783203 54.54931641 95.18783203 54.54931641 94.16796875 55.68359375 C91.29085945 58.75769431 88.30274279 61.7108098 85.31030273 64.67211914 C74.8130582 75.01569835 74.8130582 75.01569835 65 86 C63.73501776 87.50493764 62.46414704 89.00494492 61.1875 90.5 C60.62417969 91.1703125 60.06085938 91.840625 59.48046875 92.53125 C58 94 58 94 56 94 C56 94.99 56 95.98 56 97 C56.57105469 97.23460937 57.14210938 97.46921875 57.73046875 97.7109375 C60.5294505 99.30072059 62.1989295 101.1998374 64.3125 103.625 C65.49972656 104.97658203 65.49972656 104.97658203 66.7109375 106.35546875 C67.46632813 107.22816406 68.22171875 108.10085938 69 109 C70.1453602 110.3129129 71.2911529 111.6254487 72.4375 112.9375 C72.99308594 113.57558594 73.54867188 114.21367187 74.12109375 114.87109375 C77.23729021 118.40191926 80.42398227 121.86854598 83.59765625 125.34765625 C86.12638832 128.13954092 88.60201586 130.97178452 91.06640625 133.8203125 C92.63560508 135.58922754 94.22647405 137.32649287 95.83984375 139.0546875 C96.34008057 139.59230713 96.84031738 140.12992676 97.35571289 140.68383789 C98.3521064 141.75196277 99.35247266 142.81639842 100.35717773 143.87670898 C102.57108386 146.25296042 103.9592412 147.87772359 105 151 C72.48526097 153.77516033 72.48526097 153.77516033 64.58203125 147.71875 C61.35977888 144.52048462 58.79629995 140.98768575 56.40209961 137.14038086 C53.97974997 133.44253317 50.97361218 130.25832914 48 127 C47.19433594 126.10152344 46.38867188 125.20304688 45.55859375 124.27734375 C44.85863281 123.50519531 44.15867187 122.73304688 43.4375 121.9375 C40.34730257 118.52726514 37.35064861 115.07319131 34.484375 111.47265625 C32.60892743 109.49484219 32.60892743 109.49484219 28 107 C28 121.85 28 136.7 28 152 C18.76 152 9.52 152 0 152 C0 101.84 0 51.68 0 0 Z " fill="#181A1A" transform="translate(965,395)"/>
<path d="M0 0 C1.29744141 -0.04350586 1.29744141 -0.04350586 2.62109375 -0.08789062 C10.98093751 -0.16935837 17.29753695 2.5897436 24.125 7.3125 C24.82109375 7.786875 25.5171875 8.26125 26.234375 8.75 C32.76977378 13.52036407 36.38027245 18.29806133 40.375 25.3125 C40.81585938 26.05113281 41.25671875 26.78976562 41.7109375 27.55078125 C46.28679586 36.68627152 45.6529594 48.95860074 43.6796875 58.76953125 C39.42937419 71.53832964 29.57201644 80.28891959 18.05078125 86.58203125 C7.71878877 91.17222571 -6.51223319 91.3312228 -17.125 87.5 C-28.438976 81.843012 -38.32811029 71.46322711 -42.5 59.5 C-44.00129705 53.73466401 -44.01458676 48.22844703 -43.625 42.3125 C-43.55539063 41.17296875 -43.48578125 40.0334375 -43.4140625 38.859375 C-42.17745848 26.3834144 -36.94525445 17.34894931 -27.390625 9.2890625 C-18.62471544 3.02416104 -10.60601935 0.11545014 0 0 Z " fill="#05736B" transform="translate(132.625,482.6875)"/>
<path d="M0 0 C0.97708923 -0.01004562 1.95417847 -0.02009125 2.96087646 -0.03044128 C4.57464928 -0.03918777 4.57464928 -0.03918777 6.22102356 -0.04811096 C7.35123932 -0.05789474 8.48145508 -0.06767853 9.6459198 -0.07775879 C13.39986484 -0.10776225 17.15377411 -0.12911267 20.90779114 -0.14796448 C22.18802973 -0.1545363 23.46826832 -0.16110813 24.78730202 -0.1678791 C30.16856416 -0.19377713 35.54981305 -0.21726579 40.93111706 -0.23237514 C48.63705475 -0.25426612 56.34229424 -0.29619842 64.04795283 -0.36581272 C70.12307628 -0.41882698 76.19792436 -0.43886553 82.27326393 -0.44757271 C84.85487087 -0.45614041 87.43646495 -0.47499047 90.01791954 -0.50431633 C93.63304908 -0.54317153 97.24636023 -0.5442719 100.86164856 -0.53639221 C102.46023964 -0.56639313 102.46023964 -0.56639313 104.09112549 -0.59700012 C110.26161145 -0.53665698 113.69164767 0.2861416 118.14032459 4.67732143 C122.366118 9.79627919 121.08816128 18.68235835 120.69929504 24.95359802 C120.08652059 28.99701484 118.13107416 31.30412347 115.18904114 33.98094177 C112.02486276 36.02715563 109.34438388 36.28909478 105.67858887 36.30780029 C104.71550812 36.3149556 103.75242737 36.3221109 102.76016235 36.32948303 C101.1774781 36.33351639 101.1774781 36.33351639 99.56282043 36.33763123 C97.89412903 36.34748802 97.89412903 36.34748802 96.19172668 36.35754395 C92.50333085 36.37728555 88.81497572 36.38894073 85.12654114 36.39891052 C83.86803659 36.40298605 82.60953205 36.40706158 81.31289101 36.4112606 C75.34028415 36.42997218 69.36769025 36.44453805 63.39506119 36.45287257 C56.5069546 36.4626441 49.61916943 36.48896397 42.73117608 36.52937347 C36.76019099 36.56319794 30.78928449 36.57501963 24.81820107 36.57907677 C22.28045788 36.58395307 19.74271838 36.59559654 17.20503807 36.61411476 C13.65476644 36.6384144 10.10533695 36.63755758 6.55500793 36.63059998 C5.50595779 36.64341003 4.45690765 36.65622009 3.37606812 36.66941833 C-2.60923678 36.62664001 -6.09556511 36.18465894 -10.63517761 32.16062927 C-13.77508501 27.49753275 -14.24687501 23.25178836 -14.26017761 17.78562927 C-14.26323914 17.03410583 -14.26630066 16.2825824 -14.26945496 15.50828552 C-14.1182358 10.77625746 -13.47526251 7.84458072 -10.26017761 4.16062927 C-6.81494492 0.98477692 -4.66544292 0.03763142 0 0 Z " fill="#97E8DB" transform="translate(470.6351776123047,468.83937072753906)"/>
<path d="M0 0 C0.15855469 0.58007812 0.31710937 1.16015625 0.48046875 1.7578125 C2.12851687 7.27558687 4.03581766 10.82153753 8 15 C6.43413334 18.99756546 3.83643612 21.10187012 0.625 23.875 C-5.7993336 29.56517998 -11.26040189 35.88437023 -16.73242188 42.47705078 C-19.42264172 45.70925251 -22.20159328 48.86148841 -25 52 C-25.84175781 52.94617188 -26.68351563 53.89234375 -27.55078125 54.8671875 C-37.07168639 65.47882089 -46.88030938 73.58878073 -59 81 C-60.12148438 81.74443359 -60.12148438 81.74443359 -61.265625 82.50390625 C-68.08738968 86.78765218 -76.02444417 88.5348821 -83.7734375 90.44799805 C-85.20108668 90.80193607 -86.62383835 91.17664963 -88.0390625 91.57739258 C-95.27129662 93.47602333 -102.56753845 93.35401283 -110 93.3125 C-110.68941681 93.31034485 -111.37883362 93.3081897 -112.08914185 93.30596924 C-137.30832549 93.17931509 -160.77519317 87.12126148 -180 70 C-194 54.91911765 -194 54.91911765 -194 47 C-191.43795456 46.66280953 -188.87545682 46.33012847 -186.3125 46 C-185.59126953 45.90460937 -184.87003906 45.80921875 -184.12695312 45.7109375 C-182.08654754 45.45006373 -180.04533449 45.21844907 -178 45 C-176.59041016 44.8453125 -176.59041016 44.8453125 -175.15234375 44.6875 C-173 45 -173 45 -171.515625 46.6875 C-171.09796875 47.450625 -170.6803125 48.21375 -170.25 49 C-161.84563637 62.55336616 -148.2141619 67.48582206 -133.41015625 71.23828125 C-116.94868191 74.91524287 -97.85678918 75.08127757 -82 69 C-80.82824219 68.57589844 -79.65648437 68.15179687 -78.44921875 67.71484375 C-58.21271825 59.77505831 -43.14834232 44.38242495 -29.75 27.75 C-7.19574468 0 -7.19574468 0 0 0 Z " fill="#05726B" transform="translate(320,535)"/>
<path d="M0 0 C8.91 0 17.82 0 27 0 C27 49.83 27 99.66 27 151 C18.09 151 9.18 151 0 151 C0 101.17 0 51.34 0 0 Z " fill="#171818" transform="translate(1206,395)"/>
<path d="M0 0 C0.92130707 -0.00953201 1.84261414 -0.01906403 2.7918396 -0.02888489 C4.27473984 -0.02751778 4.27473984 -0.02751778 5.78759766 -0.02612305 C6.81092194 -0.03040817 7.83424622 -0.0346933 8.88858032 -0.03910828 C11.05217754 -0.04484811 13.21579405 -0.0453544 15.37939453 -0.04101562 C18.68246577 -0.03786013 21.98463741 -0.06130421 25.28759766 -0.08666992 C27.3917632 -0.08894345 29.49593114 -0.08964616 31.60009766 -0.08862305 C33.0769252 -0.10243767 33.0769252 -0.10243767 34.58358765 -0.11653137 C39.86816198 -0.08104614 43.88723611 0.0868946 48.32666016 3.2746582 C51.97626084 7.56651555 52.83671686 10.63529382 52.85791016 16.2121582 C52.86564453 18.17282227 52.86564453 18.17282227 52.87353516 20.1730957 C52.8609668 21.18388184 52.8609668 21.18388184 52.84814453 22.21508789 C52.82670875 24.26999944 52.84798522 26.32141638 52.87353516 28.3762207 C52.86837891 29.68333008 52.86322266 30.99043945 52.85791016 32.3371582 C52.85339844 33.52438477 52.84888672 34.71161133 52.84423828 35.93481445 C52.22078593 39.95784663 50.85466998 42.11636488 48.32666016 45.2746582 C45.0556452 47.45533484 44.01804305 47.54365166 40.21606445 47.61279297 C39.17455734 47.63523575 38.13305023 47.65767853 37.0599823 47.68080139 C35.37247612 47.69825661 35.37247612 47.69825661 33.65087891 47.71606445 C32.49296341 47.72983627 31.33504791 47.74360809 30.14204407 47.75779724 C27.69004099 47.78108636 25.23797436 47.79834302 22.78588867 47.81005859 C19.03853607 47.83698306 15.29400474 47.91188151 11.54736328 47.98754883 C9.16522083 48.00420591 6.78305605 48.01797241 4.40087891 48.02856445 C3.28194748 48.05841934 2.16301605 48.08827423 1.01017761 48.11903381 C-6.60823702 48.07607153 -6.60823702 48.07607153 -9.71884155 45.73556519 C-15.16393919 39.50877608 -14.98127291 34.2085357 -15.07836914 26.11816406 C-15.11044538 24.11183136 -15.17975096 22.10620616 -15.24951172 20.10083008 C-15.37606198 9.20100136 -15.37606198 9.20100136 -11.89599609 4.97387695 C-8.33716314 1.51127457 -4.96203909 0.02829566 0 0 Z " fill="#97E8DB" transform="translate(538.67333984375,521.725341796875)"/>
<path d="M0 0 C7.99828689 4.14807706 13.60828398 9.8779269 17.01171875 18.2578125 C19.14938121 26.40014481 18.59816098 35.0284089 15.03515625 42.65625 C10.95158654 49.5742975 5.7220209 54.94571014 -2.0546875 57.48046875 C-10.58104818 59.10241171 -19.55754851 58.99000835 -27.140625 54.5234375 C-33.89242628 49.45039625 -37.65317953 43.57097641 -39.98046875 35.53125 C-41.14195033 25.77480474 -39.99509478 17.24631843 -34.16796875 9.09375 C-30.52998736 4.71110718 -26.42630786 2.24813994 -21.29296875 -0.09375 C-15.51706994 -2.98169941 -5.97139261 -1.9833807 0 0 Z " fill="#FAFAFA" transform="translate(1139.29296875,465.09375)"/>
<path d="M0 0 C7.9473614 4.69976854 13.38993125 10.97002467 16.08203125 19.859375 C17.96247668 29.20887936 16.05868181 37.79818469 11.3203125 45.97265625 C7.14075007 51.5989903 1.06494877 54.8067052 -5.5 56.9375 C-13.66774428 58.12491869 -21.12332435 57.79035526 -28.34375 53.56640625 C-33.08884726 49.98179473 -37.24414695 45.5012145 -39.5 39.9375 C-39.5 38.6175 -39.5 37.2975 -39.5 35.9375 C-40.16 35.9375 -40.82 35.9375 -41.5 35.9375 C-42.2887707 24.42729046 -41.80519036 15.19802224 -33.82421875 6.0078125 C-32.13223361 4.44418486 -30.43149847 3.18924364 -28.5 1.9375 C-27.94054687 1.52757812 -27.38109375 1.11765625 -26.8046875 0.6953125 C-19.09274618 -4.14551646 -8.07612664 -3.72934288 0 0 Z " fill="#F9F9F9" transform="translate(899.5,466.0625)"/>
<path d="M0 0 C6.26214803 4.03179394 10.35200798 9.82509511 12.61328125 16.92578125 C14.40232553 26.5215642 12.95187365 35.81496698 7.6796875 44.06640625 C3.51571545 49.33394466 -2.28068275 53.80863169 -9 55 C-18.15662703 55.75407517 -26.457612 55.89976267 -34 50 C-40.12653554 43.78046203 -44.30607483 36.71556296 -44.51928711 27.84716797 C-44.51292236 27.13447754 -44.50655762 26.42178711 -44.5 25.6875 C-44.49427979 24.94129395 -44.48855957 24.19508789 -44.48266602 23.42626953 C-44.21365247 15.07688602 -41.31269823 9.29713137 -35.75 3.125 C-25.59181729 -6.09583967 -11.81829524 -6.6907809 0 0 Z " fill="#FAFAFA" transform="translate(1320,468)"/>
<path d="M0 0 C6.47862249 3.75810719 12.43662462 9.92406596 14.625 17.16015625 C16.06314586 33.02992859 16.06314586 33.02992859 12.01953125 39.48828125 C7.03646695 45.46237514 1.2232632 50.41372116 -6.71875 51.47265625 C-12.32847009 51.74967946 -16.4230717 50.68923319 -21.41015625 48.15625 C-23.44916624 47.04808555 -23.44916624 47.04808555 -26.125 46.34765625 C-30.83007927 43.86441997 -32.89351451 39.40764139 -34.75 34.59765625 C-36.2972111 26.80092579 -36.06833917 17.98405584 -31.75 11.16015625 C-23.93660973 1.12237975 -12.89592612 -4.56023703 0 0 Z " fill="#B1F5F2" transform="translate(354.375,503.83984375)"/>
<path d="M0 0 C2.64 0 5.28 0 8 0 C8 17.16 8 34.32 8 52 C5.69 52 3.38 52 1 52 C1 51.01 1 50.02 1 49 C0.21625 49.66 -0.5675 50.32 -1.375 51 C-5.65324785 53.82850984 -10.04579118 53.92639677 -15 53 C-19.73557095 50.67670319 -22.02001263 46.73945254 -24 42 C-24.72439591 35.21560394 -25.0389269 27.20447575 -22 21 C-19.18881304 17.61043486 -16.26751859 14.58803187 -11.90625 13.45703125 C-6.96209424 13.25736342 -4.58179029 14.70910485 0 17 C0 11.39 0 5.78 0 0 Z " fill="#067069" transform="translate(1024,586)"/>
<path d="M0 0 C4.30071676 3.61651182 7.52111368 7.41163267 8.28515625 13.13671875 C8.49064897 18.39911926 7.70203984 22.3803835 5 27 C1.27767953 30.90214271 -2.86403339 34.6015356 -8.3671875 35.30078125 C-15.24374793 35.33291471 -19.30514344 34.25615898 -24.6875 29.75 C-28.92792494 24.7073325 -30.60286029 19.78278224 -30.34765625 13.26953125 C-29.522246 7.88117893 -27.06059447 3.65932099 -23 0.0625 C-15.94166774 -4.79010343 -7.30871419 -4.07601368 0 0 Z " fill="#F8FAFA" transform="translate(144,512)"/>
<path d="M0 0 C4.43175859 1.95749054 7.18054307 4.50392815 9 9 C9.31884766 12.11621094 9.31884766 12.11621094 9.4140625 15.734375 C9.45273437 17.02988281 9.49140625 18.32539062 9.53125 19.66015625 C9.56270267 21.02343284 9.59395007 22.38671418 9.625 23.75 C9.66320469 25.12893028 9.70225787 26.50783734 9.7421875 27.88671875 C9.83648004 31.25767718 9.9220822 34.62862978 10 38 C7.36 38 4.72 38 2 38 C2 37.01 2 36.02 2 35 C0.865625 35.66 -0.26875 36.32 -1.4375 37 C-5.93949245 39.22704946 -10.03670501 40.13446743 -15 39 C-18 36.5625 -18 36.5625 -20 34 C-20.33 33.67 -20.66 33.34 -21 33 C-21.54396172 28.18460113 -21.72490311 24.24269105 -19.25 20 C-14.81432425 16.05717711 -11.68442428 15.76510325 -5.75 15.875 C-4.48671875 15.89304687 -3.2234375 15.91109375 -1.921875 15.9296875 C-0.95765625 15.95289063 0.0065625 15.97609375 1 16 C0.67 13.36 0.34 10.72 0 8 C-3.01134103 7.40802698 -5.92529183 6.94107702 -9 7 C-11.14589423 8.89586384 -11.14589423 8.89586384 -13 11 C-16.75 11.25 -16.75 11.25 -20 11 C-19.84817368 8.34303932 -19.52675976 6.55765476 -17.66796875 4.58984375 C-11.855209 -0.26119419 -7.45736821 -0.92446713 0 0 Z " fill="#127B73" transform="translate(869,600)"/>
<path d="M0 0 C3.67902857 1.25359492 6.30464462 3.07837255 8.6730957 6.2175293 C10.30364976 9.63674265 10.34291197 12.0529941 10.29296875 15.83203125 C10.28330078 17.12431641 10.27363281 18.41660156 10.26367188 19.74804688 C10.23860985 21.1028707 10.21321506 22.45768841 10.1875 23.8125 C10.17244013 25.18683445 10.15875401 26.56118468 10.14648438 27.93554688 C10.11116628 31.29076632 10.06183851 34.64518166 10 38 C7.69 38 5.38 38 3 38 C3 37.01 3 36.02 3 35 C1.865625 35.66 0.73125 36.32 -0.4375 37 C-4.97268142 39.25150851 -8.99696907 39.97201744 -14 39 C-16.87029869 37.20606332 -18.49131638 36.01736724 -20 33 C-20.61987388 27.99673226 -20.84941399 24.23551126 -17.9375 20 C-11.60955663 15.69161302 -5.38110494 15.73267628 2 16 C1.73606499 12.56769552 1.73606499 12.56769552 1 9 C-2.49124017 6.67250655 -3.89222251 6.49700684 -8 7 C-8.639375 7.66 -9.27875 8.32 -9.9375 9 C-12 11 -12 11 -15.75 11.25 C-16.8225 11.1675 -17.895 11.085 -19 11 C-18.84817368 8.34303932 -18.52675976 6.55765476 -16.66796875 4.58984375 C-11.06213281 -0.08850596 -7.16546071 -0.77232511 0 0 Z " fill="#0C746D" transform="translate(772,600)"/>
<path d="M0 0 C4.83303527 2.62880984 7.09865926 5.61740491 9.24609375 10.625 C9.83984375 13.19921875 9.83984375 13.19921875 9.83984375 21.19921875 C1.58984375 21.19921875 -6.66015625 21.19921875 -15.16015625 21.19921875 C-13.13209589 27.1638847 -13.13209589 27.1638847 -9.16015625 31.19921875 C-5.01434956 31.66855536 -2.71252234 31.48081715 1.02734375 29.57421875 C3.83984375 28.19921875 3.83984375 28.19921875 6.21484375 29.01171875 C6.75109375 29.40359375 7.28734375 29.79546875 7.83984375 30.19921875 C7.83984375 33.19921875 7.83984375 33.19921875 6.65234375 34.76171875 C1.59095563 38.77592312 -3.94339453 38.82889076 -10.16015625 38.19921875 C-15.34495227 36.43834463 -18.02476357 33.64102505 -21.16015625 29.19921875 C-24.01275415 23.08650897 -24.08147675 16.41627507 -22.09765625 10.01171875 C-20.25725081 5.60883492 -17.10259901 2.78868684 -13.16015625 0.19921875 C-8.5999418 -1.32085273 -4.51655924 -1.6743122 0 0 Z " fill="#1B7F79" transform="translate(1073.16015625,600.80078125)"/>
<path d="M0 0 C4.54504636 2.23120458 6.78219511 4.50163332 9 9 C9.43237305 12.22973633 9.43237305 12.22973633 9.51171875 15.83203125 C9.56489258 17.77045898 9.56489258 17.77045898 9.61914062 19.74804688 C9.64223681 21.10285934 9.66501935 22.45767718 9.6875 23.8125 C9.72069761 25.18688117 9.75518953 26.56123171 9.79101562 27.93554688 C9.87341264 31.29028234 9.94259395 34.64475904 10 38 C7.69 38 5.38 38 3 38 C3 37.01 3 36.02 3 35 C1.865625 35.66 0.73125 36.32 -0.4375 37 C-4.97268142 39.25150851 -8.99696907 39.97201744 -14 39 C-16.87029869 37.20606332 -18.49131638 36.01736724 -20 33 C-20.52137294 28.17089 -20.73402673 24.25833154 -18.25 20 C-13.81432425 16.05717711 -10.68442428 15.76510325 -4.75 15.875 C-3.48671875 15.89304687 -2.2234375 15.91109375 -0.921875 15.9296875 C0.04234375 15.95289063 1.0065625 15.97609375 2 16 C1.71848913 14.68528432 1.42446661 13.37324233 1.125 12.0625 C0.96257813 11.33160156 0.80015625 10.60070312 0.6328125 9.84765625 C0.17038477 7.79299706 0.17038477 7.79299706 -2 7 C-4.9157691 6.58297878 -4.9157691 6.58297878 -8 7 C-8.639375 7.66 -9.27875 8.32 -9.9375 9 C-12 11 -12 11 -15.75 11.25 C-16.8225 11.1675 -17.895 11.085 -19 11 C-18.84817368 8.34303932 -18.52675976 6.55765476 -16.66796875 4.58984375 C-11.07827078 -0.07503801 -7.15165995 -0.790967 0 0 Z " fill="#0D7871" transform="translate(944,600)"/>
<path d="M0 0 C2.64 0 5.28 0 8 0 C8.33 9.57 8.66 19.14 9 29 C10.794375 27.06125 12.58875 25.1225 14.4375 23.125 C15.00267334 22.51672363 15.56784668 21.90844727 16.15014648 21.28173828 C18.8868847 18.36612407 18.8868847 18.36612407 21 15 C23.97 15 26.94 15 30 15 C28.05656013 18.88687973 25.80004612 21.62831213 22.875 24.75 C22.40707031 25.25660156 21.93914063 25.76320313 21.45703125 26.28515625 C20.30873459 27.52719141 19.15491328 28.76411494 18 30 C19.544492 34.86468738 22.37485431 38.24758207 25.5625 42.125 C26.5676374 43.35364318 27.56910233 44.58530232 28.56640625 45.8203125 C29.00927979 46.35930176 29.45215332 46.89829102 29.90844727 47.45361328 C31 49 31 49 32 52 C28.77714099 52.73857186 26.20121259 52.90684505 23 52 C19.74403924 48.69368933 17.42888791 44.9345786 15 41 C14.01574593 39.65500123 13.02193172 38.31659915 12 37 C10.515 37.495 10.515 37.495 9 38 C8.67 42.95 8.34 47.9 8 53 C5.36 53 2.72 53 0 53 C0 35.51 0 18.02 0 0 Z " fill="#08716A" transform="translate(801,586)"/>
<path d="M0 0 C3.13596904 1.71590759 4.86949588 3.21635319 6.86328125 6.20703125 C6.86328125 7.52703125 6.86328125 8.84703125 6.86328125 10.20703125 C3.61328125 10.45703125 3.61328125 10.45703125 -0.13671875 10.20703125 C-1.47005208 8.87369792 -2.80338542 7.54036458 -4.13671875 6.20703125 C-7.76271297 5.78977447 -7.76271297 5.78977447 -11.13671875 6.20703125 C-12.49290374 7.3323723 -12.49290374 7.3323723 -12.19921875 10.26953125 C-12.17859375 11.23890625 -12.15796875 12.20828125 -12.13671875 13.20703125 C-11.26789062 13.449375 -10.3990625 13.69171875 -9.50390625 13.94140625 C3.33015822 17.67390822 3.33015822 17.67390822 7.86328125 22.20703125 C8.21278371 27.44956812 8.43381702 31.04140618 4.86328125 35.20703125 C0.0857339 38.85305423 -5.18897223 38.82677717 -10.9921875 38.6875 C-15.02767207 38.07089801 -17.16278053 36.85130051 -19.96875 33.94140625 C-21.65599459 31.43593268 -22.06559466 29.19424294 -22.13671875 26.20703125 C-19.82671875 26.20703125 -17.51671875 26.20703125 -15.13671875 26.20703125 C-14.84796875 26.84640625 -14.55921875 27.48578125 -14.26171875 28.14453125 C-13.30848424 30.35909204 -13.30848424 30.35909204 -11.13671875 31.20703125 C-5.25506139 31.67291407 -5.25506139 31.67291407 -0.13671875 29.20703125 C-0.63171875 26.73203125 -0.63171875 26.73203125 -1.13671875 24.20703125 C-2.00554688 23.97628906 -2.874375 23.74554687 -3.76953125 23.5078125 C-10.32513278 21.65259193 -15.40144376 20.20537707 -20.13671875 15.20703125 C-21.58819778 12.3040732 -21.509109 10.43441346 -21.13671875 7.20703125 C-15.90633691 -0.34796474 -8.96072192 -3.32545987 0 0 Z " fill="#10786F" transform="translate(727.13671875,600.79296875)"/>
<path d="M0 0 C5.15075357 1.78295316 7.59985587 4.1073985 10 9 C10.70938379 13.96568654 10.55443248 16.69873987 7.75 20.875 C5.32365228 24.09515284 2.84812622 25.6807782 -1.1484375 26.37109375 C-5.24855334 26.49337791 -8.12677395 26.39925893 -11.4375 23.8125 C-14.91905631 19.99127966 -15.81899238 17.65923651 -16.375 12.5625 C-15.84197709 7.49878239 -13.65275855 4.77081274 -10.25 1.125 C-6.86413798 -0.56793101 -3.66346554 -0.50920757 0 0 Z " fill="#192F2D" transform="translate(348,516)"/>
<path d="M0 0 C2.64 0 5.28 0 8 0 C10.64 7.92 13.28 15.84 16 24 C17.82869652 21.25695523 18.71489201 19.20449662 19.7265625 16.11328125 C20.190625 14.7065918 20.190625 14.7065918 20.6640625 13.27148438 C20.98117187 12.29501953 21.29828125 11.31855469 21.625 10.3125 C21.94984375 9.32443359 22.2746875 8.33636719 22.609375 7.31835938 C23.41031432 4.88020584 24.20701751 2.44075067 25 0 C27.64 0 30.28 0 33 0 C30.70033934 8.20579586 27.80527873 16.14994913 24.8125 24.125 C24.3441091 25.38009942 23.87600824 26.63530712 23.40820312 27.890625 C22.27497048 30.92815579 21.13884527 33.96457006 20 37 C17.69 37 15.38 37 13 37 C9.89083961 29.40078317 7.0302699 21.72498445 4.25 14 C3.83878906 12.86949219 3.42757813 11.73898437 3.00390625 10.57421875 C2.61589844 9.49785156 2.22789063 8.42148437 1.828125 7.3125 C1.4765332 6.33925781 1.12494141 5.36601563 0.76269531 4.36328125 C0 2 0 2 0 0 Z " fill="#19827C" transform="translate(1096,601)"/>
<path d="M0 0 C1.26328125 0.01804687 2.5265625 0.03609375 3.828125 0.0546875 C4.79234375 0.07789063 5.7565625 0.10109375 6.75 0.125 C6.75 0.455 6.75 0.785 6.75 1.125 C3.45 1.455 0.15 1.785 -3.25 2.125 C-3.25 3.115 -3.25 4.105 -3.25 5.125 C0.05 5.125 3.35 5.125 6.75 5.125 C6.73839844 5.88425781 6.72679687 6.64351562 6.71484375 7.42578125 C6.70582031 8.41964844 6.69679688 9.41351562 6.6875 10.4375 C6.67589844 11.42363281 6.66429687 12.40976562 6.65234375 13.42578125 C6.62670138 16.22463849 6.62670138 16.22463849 7.75 19.125 C2.06199876 22.43438254 -2.60741265 24.41555983 -9.25 23.125 C-12.12029869 21.33106332 -13.74131638 20.14236724 -15.25 17.125 C-15.77137294 12.29589 -15.98402673 8.38333154 -13.5 4.125 C-9.06432425 0.18217711 -5.93442428 -0.10989675 0 0 Z " fill="#157B74" transform="translate(939.25,615.875)"/>
<path d="M0 0 C3.49191778 0.97210898 4.94765296 2.75491025 7.1328125 5.59375 C7.66806456 8.51221934 7.88177949 10.69678416 7.8203125 13.59375 C7.84802734 14.29242187 7.87574219 14.99109375 7.90429688 15.7109375 C7.89073839 18.58533694 7.68940816 20.89779217 5.85839844 23.18725586 C3.28936569 25.4265881 1.37397155 26.55034137 -1.9921875 27.15625 C-5.54819797 26.46050882 -6.6630613 25.42762655 -8.8671875 22.59375 C-11.56876935 18.0686004 -11.27529835 13.72428641 -10.8671875 8.59375 C-9.07035127 2.09749593 -6.79367731 0.31970246 0 0 Z " fill="#EDF5F4" transform="translate(1017.8671875,606.40625)"/>
<path d="M0 0 C3.67902857 1.25359492 6.30464462 3.07837255 8.6730957 6.2175293 C10.30364976 9.63674265 10.34291197 12.0529941 10.29296875 15.83203125 C10.28330078 17.12431641 10.27363281 18.41660156 10.26367188 19.74804688 C10.23860985 21.1028707 10.21321506 22.45768841 10.1875 23.8125 C10.17244013 25.18683445 10.15875401 26.56118468 10.14648438 27.93554688 C10.11116628 31.29076632 10.06183851 34.64518166 10 38 C7.69 38 5.38 38 3 38 C3 37.01 3 36.02 3 35 C2.401875 35.495 1.80375 35.99 1.1875 36.5 C-3.48336634 38.69805475 -7.9195716 38.24023041 -13 38 C-13 37.67 -13 37.34 -13 37 C-10.69 37 -8.38 37 -6 37 C-6 36.34 -6 35.68 -6 35 C-6.66 34.67 -7.32 34.34 -8 34 C-7.319375 33.9175 -6.63875 33.835 -5.9375 33.75 C-2.1253093 32.77667472 0.64070329 31.04192545 4 29 C3.67 28.67 3.34 28.34 3 28 C2.95919217 26.00041636 2.95745644 23.99954746 3 22 C4.32 22 5.64 22 7 22 C7 18.7 7 15.4 7 12 C6.01 12.33 5.02 12.66 4 13 C3.67 13.99 3.34 14.98 3 16 C2.67 16 2.34 16 2 16 C1.896875 14.88625 1.79375 13.7725 1.6875 12.625 C1.460625 11.42875 1.23375 10.2325 1 9 C-2.49124017 6.67250655 -3.89222251 6.49700684 -8 7 C-8.639375 7.66 -9.27875 8.32 -9.9375 9 C-12 11 -12 11 -15.75 11.25 C-16.8225 11.1675 -17.895 11.085 -19 11 C-18.84817368 8.34303932 -18.52675976 6.55765476 -16.66796875 4.58984375 C-11.06213281 -0.08850596 -7.16546071 -0.77232511 0 0 Z " fill="#1E7E76" transform="translate(772,600)"/>
<path d="M0 0 C2.31 0 4.62 0 7 0 C7 16.83 7 33.66 7 51 C4.69 51 2.38 51 0 51 C0 34.17 0 17.34 0 0 Z " fill="#09766E" transform="translate(898,587)"/>
<path d="M0 0 C2.893615 0.66091821 5.59872163 0.61480062 8.56729984 0.60565853 C9.88107105 0.60414288 11.19484226 0.60262722 12.54842472 0.60106564 C14.00258768 0.59433712 15.45675027 0.58752902 16.91091251 0.58064938 C18.44356024 0.57709279 19.97620912 0.57400692 21.50885868 0.57135677 C24.80788446 0.56480813 28.10688312 0.55525033 31.40589428 0.5434618 C36.61999898 0.5251762 41.83409708 0.51557229 47.04822636 0.50754452 C61.87455471 0.48338605 76.70084286 0.44746379 91.52712345 0.402915 C99.71653732 0.3783849 107.90593551 0.36101266 116.09538072 0.35135561 C121.28127064 0.34480398 126.46703157 0.32922747 131.65287697 0.30703819 C134.87503243 0.29532859 138.09715626 0.291942 141.31933117 0.29094028 C142.81614939 0.28878839 144.31296713 0.28318163 145.80975819 0.27390957 C147.84910326 0.26176295 149.88851531 0.26305353 151.92789555 0.26508236 C153.07033254 0.26193995 154.21276953 0.25879755 155.38982582 0.25555992 C158.18410587 0.49886227 158.18410587 0.49886227 161.18410587 2.49886227 C103.10410587 2.49886227 45.02410587 2.49886227 -14.81589413 2.49886227 C-14.48589413 1.83886227 -14.15589413 1.17886227 -13.81589413 0.49886227 C-9.43922749 -0.78839263 -4.4298345 -1.22251468 0 0 Z " fill="#076861" transform="translate(450.8158941268921,433.5011377334595)"/>
<path d="M0 0 C3.60067126 0.87838956 4.94522296 2.42198203 6.9375 5.47265625 C7.69129649 8.65471319 7.74139864 11.29725661 6.9375 14.47265625 C3.90838372 18.0928196 2.00104653 19.26741043 -2.625 20.16015625 C-6.32596754 19.41996274 -7.97329634 18.41549893 -10.17578125 15.3203125 C-11.88956788 11.74929454 -11.68728036 9.40877254 -11.0625 5.47265625 C-8.05702667 0.96444626 -5.25949719 -0.38848559 0 0 Z " fill="#F2F7F7" transform="translate(517.0625,399.52734375)"/>
<path d="M0 0 C3.55247432 0.87379409 4.94828114 2.4927342 6.9375 5.4765625 C7.72836981 9.31684378 7.48230352 12.48601064 5.5625 15.9765625 C3.9375 17.4765625 3.9375 17.4765625 1.9375 17.4765625 C1.9375 18.1365625 1.9375 18.7965625 1.9375 19.4765625 C-0.9907842 19.77435411 -3.20602326 19.97288193 -6.0625 19.4765625 C-9.15709236 16.89773553 -10.61673234 15.35097899 -11.5390625 11.47265625 C-11.81143845 7.69523183 -11.14803819 5.60486978 -9.0625 2.4765625 C-5.73362371 0.25731164 -3.92313492 -0.28234683 0 0 Z " fill="#F0F6F6" transform="translate(483.0625,399.5234375)"/>
<path d="M0 0 C3.4375 2 3.4375 2 6 5 C6.74640732 7.82609184 6.68717509 10.16540277 6 13 C4.20636089 15.8100346 2.98119065 17.50940468 0 19 C-3.87214182 19.43023798 -5.52496371 19.31669086 -8.8125 17.125 C-11.79857385 14.22424254 -11.95683819 13.43881175 -12.375 9.1875 C-12.31879192 5.75880687 -11.99773575 4.99670655 -9.9375 2 C-6.20163958 -0.54356454 -4.44000949 -0.77894903 0 0 Z " fill="#F1F7F6" transform="translate(450,400)"/>
<path d="M0 0 C2.64 0 5.28 0 8 0 C8 17.16 8 34.32 8 52 C7.67 52 7.34 52 7 52 C7 35.17 7 18.34 7 1 C5.02 1 3.04 1 1 1 C1.04600342 1.55461914 1.09200684 2.10923828 1.1394043 2.68066406 C1.33903115 5.20276602 1.51349463 7.72600635 1.6875 10.25 C1.76033203 11.12269531 1.83316406 11.99539063 1.90820312 12.89453125 C2.33135078 19.41598332 2.33135078 19.41598332 0.51953125 22.609375 C0.01808594 23.06828125 -0.48335937 23.5271875 -1 24 C-1.99 23.34 -2.98 22.68 -4 22 C-7.54265623 21.45003119 -10.87665863 21.27526363 -13.9375 23.25 C-15.09789619 25.16124078 -15.62120265 26.80297535 -16 29 C-17.32 29 -18.64 29 -20 29 C-20.99 29.33 -21.98 29.66 -23 30 C-23.84003307 23.1597307 -23.84003307 23.1597307 -21.51171875 19.9453125 C-17.07849771 15.52126997 -14.66092595 13.9236585 -8.265625 13.671875 C-6 14 -6 14 0 17 C0 11.39 0 5.78 0 0 Z " fill="#228079" transform="translate(1024,586)"/>
<path d="M0 0 C1.20527344 0.00966797 2.41054687 0.01933594 3.65234375 0.02929688 C4.90660156 0.05443359 6.16085937 0.07957031 7.453125 0.10546875 C8.72285156 0.11900391 9.99257812 0.13253906 11.30078125 0.14648438 C14.43532344 0.18183635 17.56901045 0.23118627 20.703125 0.29296875 C20.703125 0.62296875 20.703125 0.95296875 20.703125 1.29296875 C12.783125 1.29296875 4.863125 1.29296875 -3.296875 1.29296875 C-1.05551373 8.94813296 -1.05551373 8.94813296 2.703125 12.29296875 C6.84893169 12.76230536 9.15075891 12.57456715 12.890625 10.66796875 C15.703125 9.29296875 15.703125 9.29296875 18.078125 10.10546875 C18.614375 10.49734375 19.150625 10.88921875 19.703125 11.29296875 C19.703125 14.29296875 19.703125 14.29296875 18.515625 15.85546875 C13.45423688 19.86967312 7.91988672 19.92264076 1.703125 19.29296875 C-3.46019792 17.53938738 -6.26458246 14.79808909 -9.296875 10.29296875 C-10.109375 6.41796875 -10.109375 6.41796875 -10.296875 3.29296875 C-6.90097291 0.16079097 -4.55175422 -0.06441162 0 0 Z " fill="#117B72" transform="translate(1061.296875,619.70703125)"/>
<path d="M0 0 C2.45326748 2.45326748 2.29513761 3.36977058 2.5 6.75 C2.82099811 10.77706726 3.50591627 14.21498788 5 18 C11.16370451 19.18470607 11.16370451 19.18470607 17.0625 17.5625 C17.701875 17.046875 18.34125 16.53125 19 16 C21.09230769 20.43076923 21.09230769 20.43076923 20.625 23.3125 C20.315625 24.1478125 20.315625 24.1478125 20 25 C20 24.01 20 23.02 20 22 C19.21625 22.66 18.4325 23.32 17.625 24 C13.34675215 26.82850984 8.95420882 26.92639677 4 26 C-0.72983404 23.67951775 -3.044933 19.74640544 -5 15 C-5.29296875 11.3515625 -5.29296875 11.3515625 -5.1875 7.625 C-5.16042969 6.37976563 -5.13335938 5.13453125 -5.10546875 3.8515625 C-5.07066406 2.91054688 -5.03585937 1.96953125 -5 1 C-2.625 0.375 -2.625 0.375 0 0 Z " fill="#0F7770" transform="translate(1005,613)"/>
<path d="M0 0 C2.64 0 5.28 0 8 0 C8.33 10.23 8.66 20.46 9 31 C8.34 31 7.68 31 7 31 C6.34 29.68 5.68 28.36 5 27 C4.01 27 3.02 27 2 27 C1.67 35.25 1.34 43.5 1 52 C2.98 52 4.96 52 7 52 C7 47.71 7 43.42 7 39 C7.33 39 7.66 39 8 39 C8 43.62 8 48.24 8 53 C5.36 53 2.72 53 0 53 C0 35.51 0 18.02 0 0 Z " fill="#338E88" transform="translate(801,586)"/>
<path d="M0 0 C0 0.99 0 1.98 0 3 C0.66 3.33 1.32 3.66 2 4 C1.21625 4.28875 0.4325 4.5775 -0.375 4.875 C-3.09671632 5.84912254 -3.09671632 5.84912254 -5 8 C-5.33333333 10.5 -5.33333333 10.5 -5 13 C-4.34 13.66 -3.68 14.32 -3 15 C-1.01421363 15 0.97208767 14.99534899 2.95703125 14.9375 C5.60893104 15.01862887 7.64337492 15.82168746 10 17 C5.05326531 21.1445615 1.59270727 22.39438619 -4.7734375 22.36328125 C-8.30687494 21.78677304 -9.86970568 19.7294396 -12 17 C-12.33 16.67 -12.66 16.34 -13 16 C-13.55419529 11.09400888 -13.74119722 7.21062213 -11.125 2.9375 C-7.44172611 -0.42077914 -4.89708562 -0.09068677 0 0 Z " fill="#117C73" transform="translate(861,617)"/>
<path d="M0 0 C2.9375 1.5 2.9375 1.5 5 4 C5.41708655 6.80196606 5.23811939 9.14256735 5 12 C4.34 12 3.68 12 3 12 C3 12.66 3 13.32 3 14 C0.24832603 15.8711383 -1.16177901 15.99432354 -4.5625 15.875 C-8 15 -8 15 -9.9375 13.375 C-11.43699866 10.02317947 -11.45377473 7.63019782 -11 4 C-8.10445004 -0.51705794 -5.12679803 -0.7195506 0 0 Z " fill="#A6F0E6" transform="translate(232,530)"/>
<path d="M0 0 C3.71317907 1.14770989 5.2692056 1.85342428 7.4375 5.0625 C8 8 8 8 7.4375 11.0625 C4.80538535 14.73150829 3.34895674 15.90259531 -1.125 16.6875 C-4.5625 16.0625 -4.5625 16.0625 -7 13.9375 C-8.85305839 10.52787255 -9.27838388 8.88054737 -8.5625 5.0625 C-5.88937913 1.25532785 -4.71546409 0.08272744 0 0 Z " fill="#A7F1E7" transform="translate(260.5625,528.9375)"/>
<path d="M0 0 C2.875 1.5 2.875 1.5 5 4 C5.94237143 7.99893269 5.61136591 10.98105682 3.5 14.5 C-0.28726141 16.77235685 -2.61177849 16.55723448 -7 16 C-9.36110026 14.22917481 -9.84291198 12.9703665 -10.30859375 10.09375 C-10.5291362 6.51160594 -10.36111402 4.55556004 -8.375 1.5 C-5.25991849 -0.4674199 -3.62829011 -0.5923739 0 0 Z " fill="#A2EFE5" transform="translate(199,529)"/>
<path d="M0 0 C2.4375 1 2.4375 1 4 3 C4.56111226 5.77663799 4.56111226 8.22336201 4 11 C1.72045596 13.91781637 0.17436907 13.97820387 -3.5 14.4375 C-7 14 -7 14 -9.4375 12.375 C-11.47161336 9.28314769 -11.60605429 7.63632575 -11 4 C-8.04627097 -0.48966812 -5.14336369 -0.64292046 0 0 Z " fill="#A2EFE4" transform="translate(294,524)"/>
<path d="M0 0 C0.33 0 0.66 0 1 0 C1.33 9.24 1.66 18.48 2 28 C-0.31 28 -2.62 28 -5 28 C-5 27.01 -5 26.02 -5 25 C-5.598125 25.495 -6.19625 25.99 -6.8125 26.5 C-11.48336634 28.69805475 -15.9195716 28.24023041 -21 28 C-21 27.67 -21 27.34 -21 27 C-18.69 27 -16.38 27 -14 27 C-14 26.34 -14 25.68 -14 25 C-14.66 24.67 -15.32 24.34 -16 24 C-14.9790625 23.87625 -14.9790625 23.87625 -13.9375 23.75 C-10.1253093 22.77667472 -7.35929671 21.04192545 -4 19 C-4.33 18.67 -4.66 18.34 -5 18 C-5.04080783 16.00041636 -5.04254356 13.99954746 -5 12 C-3.68 12 -2.36 12 -1 12 C-0.67 8.04 -0.34 4.08 0 0 Z " fill="#06726A" transform="translate(780,610)"/>
<path d="M0 0 C1.07765625 0.03609375 2.1553125 0.0721875 3.265625 0.109375 C4.49539063 0.17898438 4.49539063 0.17898438 5.75 0.25 C6.046875 5.8984375 6.046875 5.8984375 3.375 9.0625 C-0.38079067 12.19232556 -2.36613658 12.64868273 -7.25 12.25 C-9.125 11.0625 -9.125 11.0625 -10.25 9.25 C-10.6875 6.8125 -10.6875 6.8125 -10.25 4.25 C-7.14827454 0.18592536 -5.00624453 -0.21766281 0 0 Z " fill="#E4F0F0" transform="translate(865.25,620.75)"/>
<path d="M0 0 C1.49080078 0.02707031 1.49080078 0.02707031 3.01171875 0.0546875 C3.77097656 0.07789063 4.53023437 0.10109375 5.3125 0.125 C5.83002022 5.30020216 5.83002022 5.30020216 5.3125 8.125 C2.27753902 11.01543903 0.26717341 11.99396639 -3.875 12.5625 C-6.6875 12.125 -6.6875 12.125 -8.625 11.0625 C-10.35415678 7.90933176 -9.5465699 5.49991745 -8.6875 2.125 C-5.26655758 -0.15562828 -4.00562778 -0.09425007 0 0 Z " fill="#E8F1F1" transform="translate(768.6875,620.875)"/>
<path d="M0 0 C0.19659468 3.40764114 0.32679911 6.17210892 -0.9375 9.375 C-4.14768762 11.90423873 -7.96113886 12.40242276 -12 12 C-14.31470483 10.22659585 -14.91641218 9.46570359 -15.4375 6.5625 C-15 4 -15 4 -13.6875 1.6875 C-9.40525166 -1.00135361 -4.92480563 -0.30567759 0 0 Z " fill="#EBF4F3" transform="translate(946,621)"/>
<path d="M0 0 C1.32 0 2.64 0 4 0 C4 0.66 4 1.32 4 2 C4.66 2 5.32 2 6 2 C6.21398437 2.78761719 6.42796875 3.57523438 6.6484375 4.38671875 C7.76877637 7.2232966 7.76877637 7.2232966 10.6015625 8.14453125 C11.59929688 8.36496094 12.59703125 8.58539062 13.625 8.8125 C15.12933594 9.16248047 15.12933594 9.16248047 16.6640625 9.51953125 C17.43492187 9.67808594 18.20578125 9.83664062 19 10 C19 12 19 12 18 13.625 C14.84614908 15.79327251 11.63867573 15.62712025 8 15 C4.17449886 12.97898053 1.04935674 10.87100717 -1 7 C-1.25 3.8125 -1.25 3.8125 -1 1 C-0.67 0.67 -0.34 0.34 0 0 Z " fill="#13736C" transform="translate(707,607)"/>
<path d="M0 0 C2.64 0 5.28 0 8 0 C12.77676538 13.44874715 12.77676538 13.44874715 11 21 C9.68 21 8.36 21 7 21 C5.82807565 17.87694627 4.66336124 14.75125261 3.5 11.625 C3.16613281 10.73554687 2.83226562 9.84609375 2.48828125 8.9296875 C2.01455078 7.65351562 2.01455078 7.65351562 1.53125 6.3515625 C1.09135742 5.17327881 1.09135742 5.17327881 0.64257812 3.97119141 C0 2 0 2 0 0 Z " fill="#0F6F68" transform="translate(1096,601)"/>
<path d="M0 0 C2.64 0 5.28 0 8 0 C7.29463903 2.39622629 6.58072875 4.78939397 5.85546875 7.1796875 C5.30513908 8.99401636 4.76520488 10.81154825 4.23828125 12.6328125 C3.99464844 13.43460938 3.75101563 14.23640625 3.5 15.0625 C3.17515625 16.16271484 3.17515625 16.16271484 2.84375 17.28515625 C2.5653125 17.85105469 2.286875 18.41695312 2 19 C1.01 19.33 0.02 19.66 -1 20 C-1.66 19.34 -2.32 18.68 -3 18 C-3.99 18.66 -4.98 19.32 -6 20 C-4.22089072 13.24947898 -2.29561809 6.59379663 0 0 Z " fill="#177D78" transform="translate(1121,601)"/>
<path d="M0 0 C4.03277633 1.31981771 5.32216679 2.48662688 7.4375 6.125 C7.4375 7.445 7.4375 8.765 7.4375 10.125 C1.8275 10.125 -3.7825 10.125 -9.5625 10.125 C-8.33623571 3.99367853 -6.70562559 0.23528511 0 0 Z " fill="#EBF5F4" transform="translate(1067.5625,605.875)"/>
<path d="M0 0 C0.33 0 0.66 0 1 0 C1.33 8.91 1.66 17.82 2 27 C-0.31 27 -2.62 27 -5 27 C-6.31626692 23.38026598 -7 20.90432869 -7 17 C-6.34 17 -5.68 17 -5 17 C-5 15.02 -5 13.04 -5 11 C-3.68 11 -2.36 11 -1 11 C-0.67 7.37 -0.34 3.74 0 0 Z " fill="#096E67" transform="translate(952,611)"/>
<path d="M0 0 C2.99569651 2.84326063 5.40279198 5.79207302 7.75 9.1875 C8.36359375 10.06792969 8.9771875 10.94835937 9.609375 11.85546875 C11 14 11 14 11 15 C7.80656435 15.65172156 5.16729168 15.85196137 2 15 C-0.91288808 11.99212644 -2.97298644 8.64992796 -5 5 C-3.33333333 3.33333333 -1.66666667 1.66666667 0 0 Z " fill="#148079" transform="translate(822,623)"/>
<path d="M0 0 C2.31 0 4.62 0 7 0 C7.35191406 0.95132813 7.35191406 0.95132813 7.7109375 1.921875 C8.82290908 4.18250739 8.82290908 4.18250739 11.1640625 4.828125 C11.97617187 4.96734375 12.78828125 5.1065625 13.625 5.25 C14.44226563 5.39953125 15.25953125 5.5490625 16.1015625 5.703125 C16.72804688 5.80109375 17.35453125 5.8990625 18 6 C16.02 6.99 16.02 6.99 14 8 C16.35953094 10.35953094 17.77895617 10.49141413 21 11 C21 11.33 21 11.66 21 12 C8.29253596 13.0318843 8.29253596 13.0318843 3.75 9.375 C0.98143403 6.50389455 0.09630002 4.04460104 0 0 Z " fill="#28877E" transform="translate(705,627)"/>
<path d="M0 0 C-0.99 0.33 -1.98 0.66 -3 1 C-3 1.66 -3 2.32 -3 3 C-2.34 3.33 -1.68 3.66 -1 4 C-2.2375 4.226875 -3.475 4.45375 -4.75 4.6875 C-8.92034525 5.7005094 -10.67553136 7.31959133 -13 11 C-13.33 10.34 -13.66 9.68 -14 9 C-14.33 10.32 -14.66 11.64 -15 13 C-15.66 13 -16.32 13 -17 13 C-17.5863862 8.01571729 -17.75540361 5.02081569 -14.6875 0.875 C-10.25508138 -2.25439435 -5.03072696 -0.90409862 0 0 Z " fill="#11756E" transform="translate(1071,602)"/>
<path d="M0 0 C1.20527344 0.00966797 2.41054687 0.01933594 3.65234375 0.02929688 C4.90660156 0.05443359 6.16085937 0.07957031 7.453125 0.10546875 C8.72285156 0.11900391 9.99257812 0.13253906 11.30078125 0.14648438 C14.43532344 0.18183635 17.56901045 0.23118627 20.703125 0.29296875 C20.703125 0.62296875 20.703125 0.95296875 20.703125 1.29296875 C12.783125 1.29296875 4.863125 1.29296875 -3.296875 1.29296875 C-2.966875 4.26296875 -2.636875 7.23296875 -2.296875 10.29296875 C-4.276875 10.62296875 -6.256875 10.95296875 -8.296875 11.29296875 C-10.44449684 8.07153599 -10.857943 7.03342205 -10.296875 3.29296875 C-7.05811285 0.03819714 -4.4754907 -0.06333242 0 0 Z " fill="#076962" transform="translate(1061.296875,619.70703125)"/>
<path d="M0 0 C0.91007813 0.00902344 1.82015625 0.01804687 2.7578125 0.02734375 C3.80582031 0.04474609 3.80582031 0.04474609 4.875 0.0625 C2.89512291 1.55565731 0.9186993 3.03245673 -1.125 4.4375 C-3.30415952 6.04710728 -3.30415952 6.04710728 -4.9375 8.75 C-7.125 11.0625 -7.125 11.0625 -10.875 11.375 C-11.9475 11.271875 -13.02 11.16875 -14.125 11.0625 C-13.97317368 8.40553932 -13.65175976 6.62015476 -11.79296875 4.65234375 C-7.59550982 1.14935491 -5.37486482 -0.06890852 0 0 Z " fill="#288881" transform="translate(939.125,599.9375)"/>
<path d="M0 0 C0.33 0.33 0.66 0.66 1 1 C3.67058851 1.14115161 6.32432238 1.04247107 9 1 C8.505 1.433125 8.01 1.86625 7.5 2.3125 C5.66781808 3.99740483 5.66781808 3.99740483 6 7 C6 7.33 6 7.66 6 8 C-2.03501094 8.63019694 -2.03501094 8.63019694 -6.0625 6 C-6.701875 5.34 -7.34125 4.68 -8 4 C-7.6875 2.0625 -7.6875 2.0625 -7 0 C-3.86350275 -1.04549908 -3.0051095 -1.00170317 0 0 Z " fill="#178178" transform="translate(761,631)"/>
<path d="M0 0 C0.91007813 0.00902344 1.82015625 0.01804687 2.7578125 0.02734375 C3.80582031 0.04474609 3.80582031 0.04474609 4.875 0.0625 C4.875 0.3925 4.875 0.7225 4.875 1.0625 C1.905 1.0625 -1.065 1.0625 -4.125 1.0625 C-3.8775 1.97 -3.63 2.8775 -3.375 3.8125 C-3.125 7.0625 -3.125 7.0625 -4.625 9.4375 C-7.92146706 11.58020359 -10.27146454 11.3589258 -14.125 11.0625 C-13.97317368 8.40553932 -13.65175976 6.62015476 -11.79296875 4.65234375 C-7.59550982 1.14935491 -5.37486482 -0.06890852 0 0 Z " fill="#2A8E87" transform="translate(767.125,599.9375)"/>
<path d="M0 0 C1.7734375 1.5234375 1.7734375 1.5234375 3 3 C2.37351562 3.10957031 1.74703125 3.21914063 1.1015625 3.33203125 C0.28429687 3.49058594 -0.53296875 3.64914062 -1.375 3.8125 C-2.59316406 4.03873047 -2.59316406 4.03873047 -3.8359375 4.26953125 C-6.35820641 4.87544942 -6.35820641 4.87544942 -8 8 C-11.625 8.1875 -11.625 8.1875 -15 8 C-14.7395304 4.78754157 -14.42509628 3.3852435 -12 1.1875 C-8.03642717 -0.38141424 -4.2124221 -0.80461995 0 0 Z " fill="#0B6E66" transform="translate(864,603)"/>
<path d="M0 0 C0.91007813 0.00902344 1.82015625 0.01804687 2.7578125 0.02734375 C3.80582031 0.04474609 3.80582031 0.04474609 4.875 0.0625 C4.875 0.3925 4.875 0.7225 4.875 1.0625 C3.7921875 1.124375 3.7921875 1.124375 2.6875 1.1875 C-1.33917654 2.44024381 -2.76041321 4.64698575 -5.125 8.0625 C-5.99042699 10.78363503 -5.99042699 10.78363503 -6.125 13.0625 C-6.455 11.7425 -6.785 10.4225 -7.125 9.0625 C-7.785 9.0625 -8.445 9.0625 -9.125 9.0625 C-9.125 8.4025 -9.125 7.7425 -9.125 7.0625 C-10.445 6.7325 -11.765 6.4025 -13.125 6.0625 C-5.88536269 -0.07545337 -5.88536269 -0.07545337 0 0 Z " fill="#23867F" transform="translate(720.125,599.9375)"/>
<path d="M0 0 C1 1 1 1 1.1875 3.4375 C1 6 1 6 -1 8 C-4.29714793 7.67028521 -5.6226839 7.3773161 -8 5 C-7.75 2.4375 -7.75 2.4375 -7 0 C-4.31633121 -1.3418344 -2.84719317 -0.73004953 0 0 Z " fill="#187974" transform="translate(980,631)"/>
<path d="M0 0 C0.99 0.99 1.98 1.98 3 3 C3.66 2.67 4.32 2.34 5 2 C3.25740319 11.59453303 3.25740319 11.59453303 0 15 C0 14.01 0 13.02 0 12 C-0.99 12 -1.98 12 -3 12 C-2.14285714 3.42857143 -2.14285714 3.42857143 0 0 Z " fill="#066D6A" transform="translate(1117,617)"/>
<path d="M0 0 C1.64826111 2.96687001 2.44271087 5.65626525 3 9 C2.67 8.01 2.34 7.02 2 6 C1.21625 6.66 0.4325 7.32 -0.375 8 C-4.61192232 10.89251428 -9.06675416 10.35098192 -14 10 C-14 9.67 -14 9.34 -14 9 C-11.03 9 -8.06 9 -5 9 C-5 7.68 -5 6.36 -5 5 C-6.32 4.67 -7.64 4.34 -9 4 C-7.88625 3.71125 -6.7725 3.4225 -5.625 3.125 C-1.99708908 2.30758671 -1.99708908 2.30758671 0 0 Z " fill="#20837B" transform="translate(1023,629)"/>
<path d="M0 0 C2.31 0 4.62 0 7 0 C7.99 1.98 8.98 3.96 10 6 C9.195625 6.12375 8.39125 6.2475 7.5625 6.375 C6.2940625 6.684375 6.2940625 6.684375 5 7 C4.67 7.66 4.34 8.32 4 9 C1.47740939 7.02579865 1.0070192 6.03254358 0.3125 2.8125 C0.209375 1.884375 0.10625 0.95625 0 0 Z " fill="#147169" transform="translate(705,627)"/>
<path d="M0 0 C1.32 0 2.64 0 4 0 C4 0.66 4 1.32 4 2 C4.66 2 5.32 2 6 2 C6.3125 4.3125 6.3125 4.3125 6 7 C3.5 8.8125 3.5 8.8125 1 10 C-1.29404844 6.55892734 -1.26293056 5.03160191 -1 1 C-0.67 0.67 -0.34 0.34 0 0 Z " fill="#106F68" transform="translate(707,607)"/>
<path d="M0 0 C0.99 0.66 1.98 1.32 3 2 C2.67 4.64 2.34 7.28 2 10 C0.68 10 -0.64 10 -2 10 C-2.66 7.69 -3.32 5.38 -4 3 C-2.68 2.01 -1.36 1.02 0 0 Z " fill="#0B786F" transform="translate(1105,612)"/>
<path d="M0 0 C3.63 0.33 7.26 0.66 11 1 C10.01 1.33 9.02 1.66 8 2 C8 2.66 8 3.32 8 4 C8.66 4.33 9.32 4.66 10 5 C8.54364629 5.22174933 7.08477044 5.42698698 5.625 5.625 C4.81289062 5.74101563 4.00078125 5.85703125 3.1640625 5.9765625 C2.44992187 5.98429688 1.73578125 5.99203125 1 6 C0.34 5.34 -0.32 4.68 -1 4 C-0.67 2.68 -0.34 1.36 0 0 Z " fill="#0D6D67" transform="translate(1060,601)"/>
<path d="M0 0 C2 2 2 2 2.01171875 3.84765625 C1.90472656 4.57855469 1.79773438 5.30945313 1.6875 6.0625 C1.57921875 6.8565625 1.4709375 7.650625 1.359375 8.46875 C1.24078125 9.3040625 1.1221875 10.139375 1 11 C0.80692439 12.68687116 0.61913546 14.3743587 0.4375 16.0625 C0.293125 17.361875 0.14875 18.66125 0 20 C-0.33 20 -0.66 20 -1 20 C-1.99939172 12.77466796 -1.96290189 7.04335384 0 0 Z " fill="#066963" transform="translate(91,516)"/>
<path d="M0 0 C1.32 0.66 2.64 1.32 4 2 C4 5 4 5 2.75 6.75 C1 8 1 8 -1.1875 7.6875 C-1.785625 7.460625 -2.38375 7.23375 -3 7 C-3 3 -3 3 -1.5 1.25 C-1.005 0.8375 -0.51 0.425 0 0 Z " fill="#187F79" transform="translate(1077,629)"/>
<path d="M0 0 C0.33 0 0.66 0 1 0 C1.33 8.91 1.66 17.82 2 27 C0.02 27 -1.96 27 -4 27 C-4 26.01 -4 25.02 -4 24 C-3.01 24 -2.02 24 -1 24 C-0.67 16.08 -0.34 8.16 0 0 Z " fill="#02655C" transform="translate(952,611)"/>
<path d="M0 0 C2 0 2 0 3.6875 1.25 C4.120625 1.8275 4.55375 2.405 5 3 C4.6875 5.1875 4.6875 5.1875 4 7 C1.69 7 -0.62 7 -3 7 C-2.25 2.25 -2.25 2.25 0 0 Z " fill="#15786F" transform="translate(756,604)"/>
<path d="M0 0 C0.99 0.33 1.98 0.66 3 1 C3.33 2.98 3.66 4.96 4 7 C1.69 7 -0.62 7 -3 7 C-2.25 2.25 -2.25 2.25 0 0 Z " fill="#1F7A73" transform="translate(928,604)"/>
<path d="M0 0 C3.3 0 6.6 0 10 0 C10.33 0.66 10.66 1.32 11 2 C10 3.5 10 3.5 8 5 C5.28153765 5.27345479 2.74322801 5.13491285 0 5 C0.99 4.01 1.98 3.02 3 2 C2.01 1.34 1.02 0.68 0 0 Z " fill="#087068" transform="translate(935,601)"/>
<path d="M0 0 C1.65 0.33 3.3 0.66 5 1 C5 2.32 5 3.64 5 5 C1.7 5 -1.6 5 -5 5 C-5.33 4.34 -5.66 3.68 -6 3 C-4.02 2.67 -2.04 2.34 0 2 C0 1.34 0 0.68 0 0 Z " fill="#066960" transform="translate(1013,633)"/>
<path d="M0 0 C2.31 0 4.62 0 7 0 C7 0.99 7 1.98 7 3 C7.66 3.33 8.32 3.66 9 4 C7.35 4.33 5.7 4.66 4 5 C4 4.34 4 3.68 4 3 C3.38125 3.495 2.7625 3.99 2.125 4.5 C0 6 0 6 -2 6 C-1.34 4.02 -0.68 2.04 0 0 Z " fill="#0D706A" transform="translate(854,617)"/>
<path d="M0 0 C2.97 0 5.94 0 9 0 C7 4 7 4 5 5 C2.6599583 4.71758117 0.32495277 4.38749213 -2 4 C-1.34 2.68 -0.68 1.36 0 0 Z " fill="#208780" transform="translate(822,601)"/>
<path d="M0 0 C2.97 0.495 2.97 0.495 6 1 C5.34 2.98 4.68 4.96 4 7 C3.484375 6.690625 2.96875 6.38125 2.4375 6.0625 C-0.66665423 4.70940713 -3.65115007 4.38640576 -7 4 C-7 3.67 -7 3.34 -7 3 C-4.69 3 -2.38 3 0 3 C0 2.01 0 1.02 0 0 Z " fill="#22817B" transform="translate(1020,603)"/>
<path d="M0 0 C4.29 0 8.58 0 13 0 C12.67 0.66 12.34 1.32 12 2 C8.01624339 3.17169312 4.12560776 3.08089427 0 3 C0 2.01 0 1.02 0 0 Z " fill="#107D75" transform="translate(205,609)"/>
<path d="M0 0 C2.97 0 5.94 0 9 0 C8.01 1.485 8.01 1.485 7 3 C7.33 3.66 7.66 4.32 8 5 C5.36 5 2.72 5 0 5 C0.66 4.01 1.32 3.02 2 2 C1.34 1.34 0.68 0.68 0 0 Z " fill="#086C65" transform="translate(716,601)"/>
<path d="M0 0 C2 3 2 3 1.625 5.6875 C1.41875 6.450625 1.2125 7.21375 1 8 C0.34 8 -0.32 8 -1 8 C-1.66 9.32 -2.32 10.64 -3 12 C-3.33 10.02 -3.66 8.04 -4 6 C-3.01 6 -2.02 6 -1 6 C-0.67 4.02 -0.34 2.04 0 0 Z " fill="#198B80" transform="translate(1108,616)"/>
<path d="M0 0 C1 3 1 3 0.3125 5.625 C-1 8 -1 8 -3.125 8.8125 C-3.74375 8.874375 -4.3625 8.93625 -5 9 C-4.50769231 3.46153846 -4.50769231 3.46153846 -1.9375 1.125 C-1.298125 0.75375 -0.65875 0.3825 0 0 Z " fill="#086560" transform="translate(1121,619)"/>
<path d="M0 0 C1.36741555 2.25221384 2.04066478 3.52557758 1.8125 6.1875 C1.544375 6.785625 1.27625 7.38375 1 8 C0.01 8.33 -0.98 8.66 -2 9 C-3.125 4.25 -3.125 4.25 -2 2 C-1.34 2 -0.68 2 0 2 C0 1.34 0 0.68 0 0 Z " fill="#087067" transform="translate(1109,622)"/>
<path d="M0 0 C-0.99 1.485 -0.99 1.485 -2 3 C-1.01 3.33 -0.02 3.66 1 4 C-2.96 4 -6.92 4 -11 4 C-11 3.67 -11 3.34 -11 3 C-9.35 2.67 -7.7 2.34 -6 2 C-6.66 1.34 -7.32 0.68 -8 0 C-2.25 -1.125 -2.25 -1.125 0 0 Z " fill="#046F64" transform="translate(725,634)"/>
<path d="M0 0 C0 3.66184524 -0.919642 5.02806 -3 8 C-5.1875 9.8125 -5.1875 9.8125 -7 11 C-7.66 10.67 -8.32 10.34 -9 10 C-6.03 6.7 -3.06 3.4 0 0 Z " fill="#288880" transform="translate(819,605)"/>
<path d="M0 0 C2.64 0 5.28 0 8 0 C7.34 1.32 6.68 2.64 6 4 C4.02 4 2.04 4 0 4 C0 2.68 0 1.36 0 0 Z " fill="#0B7C74" transform="translate(763,602)"/>
<path d="M0 0 C1.32 0 2.64 0 4 0 C4 1.98 4 3.96 4 6 C3.01 6.495 3.01 6.495 2 7 C1.34 6.67 0.68 6.34 0 6 C0 4.02 0 2.04 0 0 Z " fill="#066C66" transform="translate(775,622)"/>
<path d="M0 0 C0.33 0.66 0.66 1.32 1 2 C1.66 2 2.32 2 3 2 C3 3.65 3 5.3 3 7 C1.68 7.33 0.36 7.66 -1 8 C-1.04241723 5.66705225 -1.04092937 3.33297433 -1 1 C-0.67 0.67 -0.34 0.34 0 0 Z " fill="#06635D" transform="translate(710,607)"/>
<path d="M0 0 C0.33 0 0.66 0 1 0 C1 4.62 1 9.24 1 14 C-0.98 14 -2.96 14 -5 14 C-4.01 13.67 -3.02 13.34 -2 13 C-2 12.34 -2 11.68 -2 11 C-1.34 11 -0.68 11 0 11 C0 7.37 0 3.74 0 0 Z " fill="#04685E" transform="translate(807,624)"/>
<path d="M0 0 C0.66 0.33 1.32 0.66 2 1 C0.68 1.33 -0.64 1.66 -2 2 C-2 2.66 -2 3.32 -2 4 C-5 6 -5 6 -7.6875 5.625 C-8.450625 5.41875 -9.21375 5.2125 -10 5 C-6.76527494 2.84351662 -3.62848922 1.38542316 0 0 Z " fill="#308881" transform="translate(245,601)"/>
<path d="M0 0 C1.50433594 0.01353516 1.50433594 0.01353516 3.0390625 0.02734375 C3.80992187 0.03894531 4.58078125 0.05054688 5.375 0.0625 C5.375 0.3925 5.375 0.7225 5.375 1.0625 C2.075 1.0625 -1.225 1.0625 -4.625 1.0625 C-4.955 2.0525 -5.285 3.0425 -5.625 4.0625 C-7.275 4.0625 -8.925 4.0625 -10.625 4.0625 C-7.08123475 0.35765451 -5.12573278 -0.05960154 0 0 Z " fill="#4A9792" transform="translate(863.625,599.9375)"/>
<path d="M0 0 C0 0.99 0 1.98 0 3 C-2.31 3 -4.62 3 -7 3 C-7 2.01 -7 1.02 -7 0 C-4.3333581 -1.33332095 -2.83319697 -0.67102033 0 0 Z " fill="#096863" transform="translate(1116,635)"/>
<path d="M0 0 C0.33 0.99 0.66 1.98 1 3 C-1.64 3 -4.28 3 -7 3 C-6.67 2.01 -6.34 1.02 -6 0 C-3 -1 -3 -1 0 0 Z " fill="#11726A" transform="translate(832,635)"/>
<path d="M0 0 C1.485 0.99 1.485 0.99 3 2 C2.74438677 4.3431213 2.40729228 6.67843403 2 9 C1.01 9.495 1.01 9.495 0 10 C0 6.7 0 3.4 0 0 Z " fill="#06645D" transform="translate(152,523)"/>
<path d="M0 0 C0.99 0.33 1.98 0.66 3 1 C2.360625 1.103125 1.72125 1.20625 1.0625 1.3125 C0.381875 1.539375 -0.29875 1.76625 -1 2 C-1.33 2.99 -1.66 3.98 -2 5 C-3.95597184 6.39712274 -5.95436401 7.73779907 -8 9 C-6.40758592 4.70048197 -3.64459275 2.60328053 0 0 Z " fill="#DFF1EF" transform="translate(431,438)"/>
<path d="M0 0 C0.33 0 0.66 0 1 0 C1 2.31 1 4.62 1 7 C1.66 7.33 2.32 7.66 3 8 C2.360625 8.28875 1.72125 8.5775 1.0625 8.875 C-1.15206079 9.82823451 -1.15206079 9.82823451 -2 12 C-2.66 11.34 -3.32 10.68 -4 10 C-3.01 9.34 -2.02 8.68 -1 8 C-0.42251197 6.03638136 -0.42251197 6.03638136 -0.3125 3.875 C-0.209375 2.59625 -0.10625 1.3175 0 0 Z " fill="#258480" transform="translate(774,621)"/>
<path d="M0 0 C0.66 0.66 1.32 1.32 2 2 C0.35 3.65 -1.3 5.3 -3 7 C-3.33 5.68 -3.66 4.36 -4 3 C-2.68 2.01 -1.36 1.02 0 0 Z " fill="#138176" transform="translate(822,608)"/>
<path d="M0 0 C0.33 0.99 0.66 1.98 1 3 C-0.98 3.99 -2.96 4.98 -5 6 C-5.66 5.34 -6.32 4.68 -7 4 C-4.69 2.68 -2.38 1.36 0 0 Z " fill="#198379" transform="translate(257,595)"/>
<path d="M0 0 C0 0.33 0 0.66 0 1 C-2.31 1 -4.62 1 -7 1 C-7.66 2.32 -8.32 3.64 -9 5 C-9.66 4.67 -10.32 4.34 -11 4 C-10.67 3.01 -10.34 2.02 -10 1 C-6.78548731 -0.60725635 -3.56387464 -0.05748185 0 0 Z " fill="#449691" transform="translate(1018,600)"/>
<path d="M0 0 C1.98 0 3.96 0 6 0 C5.01 0.33 4.02 0.66 3 1 C3.33 3.31 3.66 5.62 4 8 C1.84622436 5.37801226 0.59927826 3.35595828 0 0 Z " fill="#138077" transform="translate(127,584)"/>
<path d="M0 0 C2.64752004 2.57784846 4.94432065 4.91648098 7 8 C6.01 8 5.02 8 4 8 C0 3.77142857 0 3.77142857 0 0 Z " fill="#D2F1F0" transform="translate(322,541)"/>
<path d="M0 0 C0.66 0.33 1.32 0.66 2 1 C0.35 3.64 -1.3 6.28 -3 9 C-3.33 7.68 -3.66 6.36 -4 5 C-2.0625 2.25 -2.0625 2.25 0 0 Z " fill="#217E77" transform="translate(852,618)"/>
<path d="M0 0 C0.66 0.33 1.32 0.66 2 1 C2.625 4.0625 2.625 4.0625 3 7 C1.35 6.67 -0.3 6.34 -2 6 C-1.34 4.02 -0.68 2.04 0 0 Z " fill="#086F68" transform="translate(929,604)"/>
<path d="M0 0 C0.66 0.33 1.32 0.66 2 1 C0.515 3.475 0.515 3.475 -1 6 C-0.01 6.33 0.98 6.66 2 7 C0.35 7 -1.3 7 -3 7 C-2.25 2.25 -2.25 2.25 0 0 Z " fill="#18776D" transform="translate(852,604)"/>
<path d="M0 0 C0.66 0.66 1.32 1.32 2 2 C-0.85306797 4.32472205 -3.54074837 5.7508258 -7 7 C-4.66666667 4.66666667 -2.33333333 2.33333333 0 0 Z " fill="#167B73" transform="translate(271,584)"/>
<path d="M0 0 C0.99 1.32 1.98 2.64 3 4 C2.360625 4.28875 1.72125 4.5775 1.0625 4.875 C-1.15206079 5.82823451 -1.15206079 5.82823451 -2 8 C-1.125 2.25 -1.125 2.25 0 0 Z " fill="#2D8984" transform="translate(93,507)"/>
<path d="M0 0 C2.31 0 4.62 0 7 0 C5.68 0.33 4.36 0.66 3 1 C2.67 2.65 2.34 4.3 2 6 C0 3 0 3 0 0 Z " fill="#E7F2F1" transform="translate(1058,622)"/>
<path d="M0 0 C0.66 0.33 1.32 0.66 2 1 C0.37660195 2.70884005 -1.29319053 4.37446717 -3 6 C-3.66 6 -4.32 6 -5 6 C-3.63016497 2.83884224 -3.0109362 2.0072908 0 0 Z " fill="#28827C" transform="translate(758,617)"/>
</svg>
